<svg xmlns="http://www.w3.org/2000/svg" xmlns:xlink="http://www.w3.org/1999/xlink" width="720" height="600" viewBox="0 0 720 600" xml:space="preserve" style="shape-rendering:geometricPrecision;text-rendering:geometricPrecision;image-rendering:optimizeQuality;fill-rule:evenodd;clip-rule:evenodd"><defs><style type="text/css">.str0,.str1{stroke-linecap:round;stroke-linejoin:round}.str0{stroke:#1f1a17;stroke-width:1.87512;stroke-opacity:.4}.str1{stroke:#3d3b7e;stroke-width:3.74988}.fil18,.fil19{fill:none}.fil20{fill:#1f1a17}.fil0{fill:#fff}.fil9{fill:#e8b13a}.fil11{fill:#e8b23b}.fil4{fill:#eab74a}.fil15{fill:#eab84c}.fil7{fill:#ebbb53}.fil10{fill:#ebbc55}.fil14{fill:#ebbc56}.fil6{fill:#f8e7c3}.fil13{fill:#f8e8c4}.fil16{fill:#f8e8c5}.fil12{fill:#fdf9ef}.fil3{fill:#fdf9f0}.fil8{fill:#fdfaf1}.fil5{fill:#fefcf7}.fil2{fill:#fefcf8}.fil1{fill:#fffffe}.fil28{fill:#1c1c1c}.fil23{fill:#2e2e2e}.fil30{fill:#363636}.fil26{fill:#383838}.fil29{fill:#3b3b3b}.fil25{fill:#bababa}.fil31{fill:#bdbdbd}.fil22{fill:#ededed}.fil27{fill:#f0f0f0}.fil24{fill:#f5f5f5}.fil21{fill:#f7f7f7}.fil17{fill:#e5a823}</style></defs><g id="Layer_x0020_1"><metadata id="CorelCorpID_0Corel-Layer"/><rect width="720.001" height="600" x="0" y="0" class="fil0"/><circle cx="330.837" cy="506.639" r="25.153" class="fil1"/><circle cx="680.788" cy="331.661" r="25.153" class="fil2"/><circle cx="622.462" cy="389.987" r="25.153" class="fil3"/><circle cx="622.46" cy="331.663" r="25.153" class="fil4"/><circle cx="622.46" cy="273.336" r="25.153" class="fil5"/><circle cx="564.137" cy="389.987" r="25.153" class="fil6"/><circle cx="564.135" cy="331.663" r="25.153" class="fil7"/><circle cx="564.135" cy="273.336" r="25.153" class="fil1"/><circle cx="505.814" cy="448.313" r="25.153" class="fil1"/><circle cx="505.814" cy="389.987" r="25.153" class="fil7"/><circle cx="505.812" cy="331.663" r="25.153" class="fil6"/><circle cx="447.489" cy="448.313" r="25.153" class="fil8"/><circle cx="447.489" cy="389.987" r="25.153" class="fil9"/><circle cx="447.486" cy="331.66" r="25.153" class="fil8"/><circle cx="389.164" cy="448.313" r="25.153" class="fil6"/><circle cx="389.164" cy="389.987" r="25.153" class="fil10"/><circle cx="389.162" cy="331.663" r="25.153" class="fil1"/><circle cx="330.837" cy="448.313" r="25.153" class="fil10"/><circle cx="330.837" cy="389.987" r="25.153" class="fil6"/><circle cx="272.513" cy="506.639" r="25.153" class="fil8"/><circle cx="272.513" cy="448.313" r="25.153" class="fil11"/><circle cx="272.513" cy="389.987" r="25.153" class="fil12"/><circle cx="214.185" cy="506.639" r="25.153" class="fil13"/><circle cx="214.185" cy="448.313" r="25.153" class="fil14"/><circle cx="214.185" cy="389.987" r="25.153" class="fil1"/><circle cx="155.863" cy="564.963" r="25.153" class="fil1"/><circle cx="155.862" cy="506.638" r="25.153" class="fil15"/><circle cx="155.862" cy="448.312" r="25.153" class="fil16"/><circle cx="97.537" cy="564.963" r="25.153" class="fil2"/><circle cx="97.537" cy="506.637" r="25.153" class="fil15"/><circle cx="97.537" cy="448.312" r="25.153" class="fil3"/><circle cx="39.212" cy="506.637" r="25.153" class="fil2"/><g id="_33887128"><circle id="_33892432" cx="389.158" cy="215.012" r="25.153" class="fil17"/><circle id="_33891904" cx="447.483" cy="215.012" r="25.153" class="fil17"/><circle id="_33891240" cx="505.809" cy="215.011" r="25.153" class="fil17"/><circle id="_33890712" cx="564.133" cy="156.687" r="25.153" class="fil17"/><circle id="_33890184" cx="622.458" cy="156.687" r="25.153" class="fil17"/><circle id="_33889656" cx="272.509" cy="273.337" r="25.153" class="fil17"/><circle id="_33889128" cx="330.834" cy="273.337" r="25.153" class="fil17"/><circle id="_33888600" cx="214.184" cy="273.337" r="25.153" class="fil17"/><circle id="_33888072" cx="155.858" cy="331.662" r="25.153" class="fil17"/><circle id="_33887408" cx="97.533" cy="331.662" r="25.153" class="fil17"/></g><path d="M564.136 32.2094l0 15.6515m7.82575 -7.82575l-15.6515 0" class="fil18 str0"/><path d="M505.811 32.2094l0 15.6515m7.82575 -7.82575l-15.6515 0" class="fil18 str0"/><path d="M622.461 32.2094l0 15.6515m7.82575 -7.82575l-15.6515 0" class="fil18 str0"/><path d="M622.461 148.86l0 15.6515m7.82575 -7.82575l-15.6515 0" class="fil18 str0"/><path d="M447.486 32.2094l0 15.6515m7.82575 -7.82575l-15.6515 0" class="fil18 str0"/><path d="M622.461 90.535l0 15.6515m7.82575 -7.82575l-15.6515 0" class="fil18 str0"/><path d="M564.136 90.535l0 15.6515m7.82575 -7.82575l-15.6515 0" class="fil18 str0"/><path d="M505.811 90.535l0 15.6515m7.82575 -7.82575l-15.6515 0" class="fil18 str0"/><path d="M564.136 148.86l0 15.6515m7.82575 -7.82575l-15.6515 0" class="fil18 str0"/><path d="M505.811 148.86l0 15.6515m7.82575 -7.82575l-15.6515 0" class="fil18 str0"/><path d="M447.486 148.86l0 15.6515m7.82575 -7.82575l-15.6515 0" class="fil18 str0"/><path d="M330.835 32.2094l0 15.6515m7.82575 -7.82575l-15.6515 0" class="fil18 str0"/><path d="M272.51 32.2094l0 15.6515m7.82575 -7.82575l-15.6515 0" class="fil18 str0"/><path d="M389.16 32.2094l0 15.6515m7.82575 -7.82575l-15.6515 0" class="fil18 str0"/><path d="M447.485 90.5347l0 15.6515m7.82575 -7.82575l-15.6515 0" class="fil18 str0"/><path d="M389.16 90.5347l0 15.6515m7.82575 -7.82575l-15.6515 0" class="fil18 str0"/><path d="M330.835 90.5347l0 15.6515m7.82575 -7.82575l-15.6515 0" class="fil18 str0"/><path d="M272.51 90.5347l0 15.6515m7.82575 -7.82575l-15.6515 0" class="fil18 str0"/><path d="M330.835 148.859l0 15.6515m7.82575 -7.82575l-15.6515 0" class="fil18 str0"/><path d="M272.51 148.859l0 15.6515m7.82575 -7.82575l-15.6515 0" class="fil18 str0"/><path d="M389.16 148.859l0 15.6515m7.82575 -7.82575l-15.6515 0" class="fil18 str0"/><path d="M622.461 265.51l0 15.6515m7.82575 -7.82575l-15.6515 0" class="fil18 str0"/><path d="M622.461 207.185l0 15.6515m7.82575 -7.82575l-15.6515 0" class="fil18 str0"/><path d="M564.136 207.185l0 15.6515m7.82575 -7.82575l-15.6515 0" class="fil18 str0"/><path d="M505.811 207.185l0 15.6515m7.82575 -7.82575l-15.6515 0" class="fil18 str0"/><path d="M564.136 265.51l0 15.6515m7.82575 -7.82575l-15.6515 0" class="fil18 str0"/><path d="M505.811 265.51l0 15.6515m7.82575 -7.82575l-15.6515 0" class="fil18 str0"/><path d="M447.486 265.509l0 15.6515m7.82575 -7.82575l-15.6515 0" class="fil18 str0"/><path d="M447.486 207.184l0 15.6515m7.82575 -7.82575l-15.6515 0" class="fil18 str0"/><path d="M447.486 323.835l0 15.6515m7.82575 -7.82575l-15.6515 0" class="fil18 str0"/><path d="M622.461 323.836l0 15.6515m7.82575 -7.82575l-15.6515 0" class="fil18 str0"/><path d="M564.136 323.836l0 15.6515m7.82575 -7.82575l-15.6515 0" class="fil18 str0"/><path d="M505.811 323.836l0 15.6515m7.82575 -7.82575l-15.6515 0" class="fil18 str0"/><path d="M389.16 207.185l0 15.6515m7.82575 -7.82575l-15.6515 0" class="fil18 str0"/><path d="M330.835 207.185l0 15.6515m7.82575 -7.82575l-15.6515 0" class="fil18 str0"/><path d="M389.16 265.51l0 15.6515m7.82575 -7.82575l-15.6515 0" class="fil18 str0"/><path d="M330.835 265.51l0 15.6515m7.82575 -7.82575l-15.6515 0" class="fil18 str0"/><path d="M272.51 265.509l0 15.6515m7.82575 -7.82575l-15.6515 0" class="fil18 str0"/><path d="M272.51 207.184l0 15.6515m7.82575 -7.82575l-15.6515 0" class="fil18 str0"/><path d="M272.51 323.835l0 15.6515m7.82575 -7.82575l-15.6515 0" class="fil18 str0"/><path d="M389.16 323.836l0 15.6515m7.82575 -7.82575l-15.6515 0" class="fil18 str0"/><path d="M330.835 323.836l0 15.6515m7.82575 -7.82575l-15.6515 0" class="fil18 str0"/><path d="M97.5348 207.184l0 15.6515m7.82575 -7.82575l-15.6515 0" class="fil18 str0"/><path d="M39.2099 207.184l0 15.6515m7.82575 -7.82575l-15.6515 0" class="fil18 str0"/><path d="M97.5345 265.51l0 15.6515m7.82575 -7.82575l-15.6515 0" class="fil18 str0"/><path d="M39.2095 265.51l0 15.6515m7.82575 -7.82575l-15.6515 0" class="fil18 str0"/><path d="M155.861 207.185l0 15.6515m7.82575 -7.82575l-15.6515 0" class="fil18 str0"/><path d="M155.86 265.51l0 15.6515m7.82575 -7.82575l-15.6515 0" class="fil18 str0"/><path d="M214.185 207.184l0 15.6515m7.82575 -7.82575l-15.6515 0" class="fil18 str0"/><path d="M214.185 265.509l0 15.6515m7.82575 -7.82575l-15.6515 0" class="fil18 str0"/><path d="M97.5345 323.835l0 15.6515m7.82575 -7.82575l-15.6515 0" class="fil18 str0"/><path d="M39.2095 323.835l0 15.6515m7.82575 -7.82575l-15.6515 0" class="fil18 str0"/><path d="M155.86 323.836l0 15.6515m7.82575 -7.82575l-15.6515 0" class="fil18 str0"/><path d="M214.185 323.835l0 15.6515m7.82575 -7.82575l-15.6515 0" class="fil18 str0"/><line x1="97.533" x2="622.459" y1="331.662" y2="156.686" class="fil19 str1"/><path d="M622.463 557.137l0 15.6515m7.82575 -7.82575l-15.6515 0" class="fil18 str0"/><path d="M564.138 557.137l0 15.6515m7.82575 -7.82575l-15.6515 0" class="fil18 str0"/><path d="M505.813 557.137l0 15.6515m7.82575 -7.82575l-15.6515 0" class="fil18 str0"/><path d="M447.488 557.137l0 15.6515m7.82575 -7.82575l-15.6515 0" class="fil18 str0"/><path d="M330.837 557.136l0 15.6515m7.82575 -7.82575l-15.6515 0" class="fil18 str0"/><path d="M272.512 557.136l0 15.6515m7.82575 -7.82575l-15.6515 0" class="fil18 str0"/><path d="M389.162 557.136l0 15.6515m7.82575 -7.82575l-15.6515 0" class="fil18 str0"/><path d="M214.187 557.136l0 15.6515m7.82575 -7.82575l-15.6515 0" class="fil18 str0"/><path d="M97.537 557.137l0 15.6515m7.82575 -7.82575l-15.6515 0" class="fil18 str0"/><path d="M39.212 557.137l0 15.6515m7.82575 -7.82575l-15.6515 0" class="fil18 str0"/><path d="M155.863 557.137l0 15.6515m7.82575 -7.82575l-15.6515 0" class="fil18 str0"/><path d="M622.463 382.162l0 15.6515m7.82575 -7.82575l-15.6515 0" class="fil18 str0"/><path d="M564.138 382.162l0 15.6515m7.82575 -7.82575l-15.6515 0" class="fil18 str0"/><path d="M505.813 382.162l0 15.6515m7.82575 -7.82575l-15.6515 0" class="fil18 str0"/><path d="M564.138 440.487l0 15.6515m7.82575 -7.82575l-15.6515 0" class="fil18 str0"/><path d="M505.813 440.487l0 15.6515m7.82575 -7.82575l-15.6515 0" class="fil18 str0"/><path d="M622.463 440.487l0 15.6515m7.82575 -7.82575l-15.6515 0" class="fil18 str0"/><path d="M447.488 382.162l0 15.6515m7.82575 -7.82575l-15.6515 0" class="fil18 str0"/><path d="M447.488 440.487l0 15.6515m7.82575 -7.82575l-15.6515 0" class="fil18 str0"/><path d="M622.463 498.812l0 15.6515m7.82575 -7.82575l-15.6515 0" class="fil18 str0"/><path d="M564.138 498.812l0 15.6515m7.82575 -7.82575l-15.6515 0" class="fil18 str0"/><path d="M505.813 498.812l0 15.6515m7.82575 -7.82575l-15.6515 0" class="fil18 str0"/><path d="M389.162 382.162l0 15.6515m7.82575 -7.82575l-15.6515 0" class="fil18 str0"/><path d="M330.837 382.162l0 15.6515m7.82575 -7.82575l-15.6515 0" class="fil18 str0"/><path d="M272.512 382.162l0 15.6515m7.82575 -7.82575l-15.6515 0" class="fil18 str0"/><path d="M330.837 440.487l0 15.6515m7.82575 -7.82575l-15.6515 0" class="fil18 str0"/><path d="M272.512 440.487l0 15.6515m7.82575 -7.82575l-15.6515 0" class="fil18 str0"/><path d="M389.162 440.487l0 15.6515m7.82575 -7.82575l-15.6515 0" class="fil18 str0"/><path d="M214.187 440.487l0 15.6515m7.82575 -7.82575l-15.6515 0" class="fil18 str0"/><path d="M214.187 382.162l0 15.6515m7.82575 -7.82575l-15.6515 0" class="fil18 str0"/><path d="M447.487 498.812l0 15.6515m7.82575 -7.82575l-15.6515 0" class="fil18 str0"/><path d="M389.162 498.812l0 15.6515m7.82575 -7.82575l-15.6515 0" class="fil18 str0"/><path d="M330.837 498.812l0 15.6515m7.82575 -7.82575l-15.6515 0" class="fil18 str0"/><path d="M272.512 498.812l0 15.6515m7.82575 -7.82575l-15.6515 0" class="fil18 str0"/><path d="M214.187 498.812l0 15.6515m7.82575 -7.82575l-15.6515 0" class="fil18 str0"/><path d="M97.537 382.161l0 15.6515m7.82575 -7.82575l-15.6515 0" class="fil18 str0"/><path d="M39.212 382.161l0 15.6515m7.82575 -7.82575l-15.6515 0" class="fil18 str0"/><path d="M97.5366 440.486l0 15.6515m7.82575 -7.82575l-15.6515 0" class="fil18 str0"/><path d="M39.2117 440.486l0 15.6515m7.82575 -7.82575l-15.6515 0" class="fil18 str0"/><path d="M155.863 382.161l0 15.6515m7.82575 -7.82575l-15.6515 0" class="fil18 str0"/><path d="M155.862 440.486l0 15.6515m7.82575 -7.82575l-15.6515 0" class="fil18 str0"/><path d="M97.5366 498.812l0 15.6515m7.82575 -7.82575l-15.6515 0" class="fil18 str0"/><path d="M39.2117 498.812l0 15.6515m7.82575 -7.82575l-15.6515 0" class="fil18 str0"/><path d="M155.862 498.812l0 15.6515m7.82575 -7.82575l-15.6515 0" class="fil18 str0"/><path d="M680.788 382.162l0 15.6515m7.82575 -7.82575l-15.6515 0" class="fil18 str0"/><path d="M680.788 440.487l0 15.6515m7.82575 -7.82575l-15.6515 0" class="fil18 str0"/><path d="M680.788 498.812l0 15.6515m7.82575 -7.82575l-15.6515 0" class="fil18 str0"/><path d="M680.788 557.137l0 15.6515m7.82575 -7.82575l-15.6515 0" class="fil18 str0"/><path d="M680.788 32.2094l0 15.6515m7.82575 -7.82575l-15.6515 0" class="fil18 str0"/><path d="M680.788 90.535l0 15.6515m7.82575 -7.82575l-15.6515 0" class="fil18 str0"/><path d="M680.788 148.86l0 15.6515m7.82575 -7.82575l-15.6515 0" class="fil18 str0"/><path d="M680.788 207.185l0 15.6515m7.82575 -7.82575l-15.6515 0" class="fil18 str0"/><path d="M680.788 265.51l0 15.6515m7.82575 -7.82575l-15.6515 0" class="fil18 str0"/><path d="M680.788 323.836l0 15.6515m7.82575 -7.82575l-15.6515 0" class="fil18 str0"/><path d="M88.3159 478.971c-11.9052,3.96602 -19.9403,15.1165 -19.9403,27.6658 0,16.1026 13.0585,29.1611 29.1611,29.1611 3.13299,0 6.25146,-0.50563 9.22075,-1.49528m-18.4415 -55.3316l524.923 -174.985m18.4472 55.3493c11.9091,-3.96744 19.9467,-15.1211 19.9467,-27.6746 0,-16.1075 -13.0628,-29.1703 -29.1703,-29.1703 -3.13406,0 -6.25358,0.50563 -9.22358,1.49563" class="fil19 str1"/><line x1="631.686" x2="106.757" y1="359.336" y2="534.303" class="fil19 str1"/><g id="_33676936"><circle id="_34001632" cx="121.168" cy="93.164" r="4.75" class="fil20"/><circle id="_34000968" cx="110.154" cy="93.164" r="4.75" class="fil20"/><circle id="_33685120" cx="99.139" cy="93.165" r="4.75" class="fil20"/><circle id="_33684592" cx="88.125" cy="104.179" r="4.75" class="fil20"/><circle id="_33684064" cx="77.11" cy="104.179" r="4.75" class="fil20"/><circle id="_33683536" cx="143.197" cy="82.15" r="4.75" class="fil20"/><circle id="_33683008" cx="132.183" cy="82.15" r="4.75" class="fil20"/><circle id="_33682480" cx="154.211" cy="82.15" r="4.75" class="fil20"/><circle id="_33681952" cx="165.226" cy="71.135" r="4.75" class="fil20"/><circle id="_33677208" cx="176.24" cy="71.135" r="4.75" class="fil20"/></g><circle cx="187.3" cy="104.179" r="4.752" class="fil21"/><circle cx="176.281" cy="115.198" r="4.752" class="fil22"/><circle cx="176.28" cy="104.18" r="4.752" class="fil23"/><circle cx="176.28" cy="93.16" r="4.752" class="fil24"/><circle cx="165.262" cy="115.198" r="4.752" class="fil25"/><circle cx="165.261" cy="104.18" r="4.752" class="fil26"/><circle cx="165.261" cy="93.16" r="4.752" class="fil0"/><circle cx="154.243" cy="126.217" r="4.752" class="fil0"/><circle cx="154.243" cy="115.198" r="4.752" class="fil26"/><circle cx="154.243" cy="104.18" r="4.752" class="fil25"/><circle cx="143.224" cy="126.217" r="4.752" class="fil27"/><circle cx="143.224" cy="115.198" r="4.752" class="fil28"/><circle cx="143.224" cy="104.179" r="4.752" class="fil27"/><circle cx="132.206" cy="126.217" r="4.752" class="fil25"/><circle cx="132.206" cy="115.198" r="4.752" class="fil29"/><circle cx="132.205" cy="104.18" r="4.752" class="fil0"/><circle cx="121.186" cy="126.217" r="4.752" class="fil29"/><circle cx="121.186" cy="115.198" r="4.752" class="fil25"/><circle cx="110.167" cy="137.236" r="4.752" class="fil27"/><circle cx="110.167" cy="126.217" r="4.752" class="fil28"/><circle cx="110.167" cy="115.198" r="4.752" class="fil22"/><circle cx="99.148" cy="137.236" r="4.752" class="fil25"/><circle cx="99.148" cy="126.217" r="4.752" class="fil29"/><circle cx="99.148" cy="115.198" r="4.752" class="fil0"/><circle cx="88.13" cy="148.255" r="4.752" class="fil0"/><circle cx="88.129" cy="137.236" r="4.752" class="fil30"/><circle cx="88.129" cy="126.217" r="4.752" class="fil31"/><circle cx="77.111" cy="148.255" r="4.752" class="fil21"/><circle cx="77.111" cy="137.236" r="4.752" class="fil23"/><circle cx="77.111" cy="126.217" r="4.752" class="fil22"/><circle cx="66.092" cy="137.236" r="4.752" class="fil21"/><circle cx="121.186" cy="137.236" r="4.752" class="fil0"/></g></svg>