<svg xmlns="http://www.w3.org/2000/svg" xmlns:svg="http://www.w3.org/2000/svg" id="svg2" width="600" height="700" version="1.0" viewBox="-150 -150 300 350"><metadata id="metadata94"/><style id="style4" type="text/css"/><title id="title6">RGB Cube</title><desc id="desc8">The RGB color model mapped to a cube (with cut-away shown).</desc><path id="path10" d="M -86.6,54.996426 V 34.996429 l 17.3,9.999997 v 20 z" style="fill:red;stroke:#000;stroke-width:.5"/><path id="path12" d="m -69.3,64.996426 v -20 l 17.3,10 v 20 z" style="fill:#ff4000;stroke:#000;stroke-width:.5"/><path id="path14" d="m -52,74.996426 v -20 l 17.4,10 v 20 z" style="fill:#ff8000;stroke:#000;stroke-width:.5"/><path id="path16" d="m -34.6,84.996426 v -20 l 17.3,10 v 20 z" style="fill:#ffc000;stroke:#000;stroke-width:.5"/><path id="path18" d="m -17.3,94.996426 v -20 l 17.3,10 v 20.000004 z" style="fill:#ff0;stroke:#000;stroke-width:.5"/><path id="path20" d="M 0,104.99643 V 84.996426 l 17.3,-10 v 20 z" style="fill:#ff0;stroke:#000;stroke-width:.5"/><path id="path22" d="m 17.3,94.996426 v -20 l 17.3,-10 v 20 z" style="fill:#c0ff00;stroke:#000;stroke-width:.5"/><path id="path24" d="m 34.6,84.996426 v -20 l 17.4,-10 v 20 z" style="fill:#80ff00;stroke:#000;stroke-width:.5"/><path id="path26" d="m 52,74.996426 v -20 l 17.3,-10 v 20 z" style="fill:#40ff00;stroke:#000;stroke-width:.5"/><path id="path28" d="m 69.3,64.996426 v -20 l 17.3,-9.999997 v 19.999997 z" style="fill:#0f0;stroke:#000;stroke-width:.5"/><path id="path30" d="M 69.3,44.996426 V 24.996429 l 17.3,-10 v 20 z" style="fill:#00ff40;stroke:#000;stroke-width:.5"/><path id="path32" d="M 69.3,24.996429 V 4.9964288 l 17.3,-10 V 14.996429 Z" style="fill:#00ff80;stroke:#000;stroke-width:.5"/><path id="path34" d="M 69.3,4.9964288 V -15.003571 l 17.3,-10 v 19.9999998 z" style="fill:#00ffc0;stroke:#000;stroke-width:.5"/><path id="path36" d="m 69.3,-15.003571 v -20 l 17.3,-10 v 20 z" style="fill:#0ff;stroke:#000;stroke-width:.5"/><path id="path38" d="m 69.3,-35.003571 -17.3,-10 17.3,-10 17.3,10 z" style="fill:#0ff;stroke:#000;stroke-width:.5"/><path id="path40" d="m 52,-45.003571 -17.4,-10 17.4,-10.000003 17.3,10.000003 z" style="fill:#00c0ff;stroke:#000;stroke-width:.5"/><path id="path42" d="m 34.6,-55.003571 -17.3,-10.000003 17.3,-10 17.4,10 z" style="fill:#0080ff;stroke:#000;stroke-width:.5"/><path id="path44" d="m 17.3,-65.003574 -17.3,-10 17.3,-10 17.3,10 z" style="fill:#0040ff;stroke:#000;stroke-width:.5"/><path id="path46" d="m 0,-75.003574 -17.3,-10 17.3,-10 17.3,10 z" style="fill:#00f;stroke:#000;stroke-width:.5"/><path id="path48" d="m -17.3,-65.003574 -17.3,-10 17.3,-10 17.3,10 z" style="fill:#4000ff;stroke:#000;stroke-width:.5"/><path id="path50" d="m -34.6,-55.003571 -17.4,-10.000003 17.4,-10 17.3,10 z" style="fill:#8000ff;stroke:#000;stroke-width:.5"/><path id="path52" d="m -52,-45.003571 -17.3,-10 17.3,-10.000003 17.4,10.000003 z" style="fill:#c000ff;stroke:#000;stroke-width:.5"/><path id="path54" d="m -69.3,-35.003571 -17.3,-10 17.3,-10 17.3,10 z" style="fill:#f0f;stroke:#000;stroke-width:.5"/><path id="path56" d="m -69.3,-15.003571 -17.3,-10 v -20 l 17.3,10 z" style="fill:#f0f;stroke:#000;stroke-width:.5"/><path id="path58" d="m -69.3,4.9964288 -17.3,-10 V -25.003571 l 17.3,10 z" style="fill:#ff00c0;stroke:#000;stroke-width:.5"/><path id="path60" d="m -69.3,24.996429 -17.3,-10 V -5.0035712 l 17.3,10 z" style="fill:#ff0080;stroke:#000;stroke-width:.5"/><path id="path62" d="m -69.3,44.996426 -17.3,-9.999997 v -20 l 17.3,10 z" style="fill:#ff0040;stroke:#000;stroke-width:.5"/><path id="path64" d="M -69.3,44.996426 V 24.996429 l 17.3,10 v 19.999997 z" style="fill:#ff4040;stroke:#000;stroke-width:.5"/><path id="path66" d="M -52,54.996426 V 34.996429 l 17.4,9.999997 v 20 z" style="fill:#ff8040;stroke:#000;stroke-width:.5"/><path id="path68" d="m -34.6,64.996426 v -20 l 17.3,10 v 20 z" style="fill:#ffc040;stroke:#000;stroke-width:.5"/><path id="path70" d="m -17.3,74.996426 v -20 l 17.3,10 v 20 z" style="fill:#ffff40;stroke:#000;stroke-width:.5"/><path id="path72" d="m 0,84.996426 v -20 l 17.3,-10 v 20 z" style="fill:#ffff40;stroke:#000;stroke-width:.5"/><path id="path74" d="m 17.3,74.996426 v -20 l 17.3,-10 v 20 z" style="fill:#c0ff40;stroke:#000;stroke-width:.5"/><path id="path76" d="m 34.6,64.996426 v -20 L 52,34.996429 v 19.999997 z" style="fill:#80ff40;stroke:#000;stroke-width:.5"/><path id="path78" d="M 52,54.996426 V 34.996429 l 17.3,-10 v 19.999997 z" style="fill:#40ff40;stroke:#000;stroke-width:.5"/><path id="path80" d="m 52,34.996429 v -20 L 69.3,4.9964288 V 24.996429 Z" style="fill:#40ff80;stroke:#000;stroke-width:.5"/><path id="path82" d="M 52,14.996429 V -5.0035712 L 69.3,-15.003571 V 4.9964288 Z" style="fill:#40ffc0;stroke:#000;stroke-width:.5"/><path id="path84" d="M 52,-5.0035712 V -25.003571 l 17.3,-10 v 20 z" style="fill:#40ffff;stroke:#000;stroke-width:.5"/><path id="path86" d="m 52,-25.003571 -17.4,-10 17.4,-10 17.3,10 z" style="fill:#40ffff;stroke:#000;stroke-width:.5"/><path id="path88" d="m 34.6,-35.003571 -17.3,-10 17.3,-10 17.4,10 z" style="fill:#40c0ff;stroke:#000;stroke-width:.5"/><path id="path90" d="m 17.3,-45.003571 -17.3,-10 17.3,-10.000003 17.3,10.000003 z" style="fill:#4080ff;stroke:#000;stroke-width:.5"/><path id="path92" d="m 0,-55.003571 -17.3,-10.000003 17.3,-10 17.3,10 z" style="fill:#4040ff;stroke:#000;stroke-width:.5"/><path id="path94" d="m -17.3,-45.003571 -17.3,-10 17.3,-10.000003 17.3,10.000003 z" style="fill:#8040ff;stroke:#000;stroke-width:.5"/><path id="path96" d="m -34.6,-35.003571 -17.4,-10 17.4,-10 17.3,10 z" style="fill:#c040ff;stroke:#000;stroke-width:.5"/><path id="path98" d="m -52,-25.003571 -17.3,-10 17.3,-10 17.4,10 z" style="fill:#ff40ff;stroke:#000;stroke-width:.5"/><path id="path100" d="m -52,-5.0035712 -17.3,-9.9999998 v -20 l 17.3,10 z" style="fill:#ff40ff;stroke:#000;stroke-width:.5"/><path id="path102" d="M -52,14.996429 -69.3,4.9964288 V -15.003571 l 17.3,9.9999998 z" style="fill:#ff40c0;stroke:#000;stroke-width:.5"/><path id="path104" d="m -52,34.996429 -17.3,-10 V 4.9964288 L -52,14.996429 Z" style="fill:#ff4080;stroke:#000;stroke-width:.5"/><path id="path106" d="m -52,34.996429 v -20 l 8.7,5 L -26,9.9964288 V 19.996429 l 8.7,5 -17.3,10 v 9.999997 z" style="fill:#ff8080;stroke:#000;stroke-width:.5"/><path id="path108" d="m -34.6,44.996426 v -9.999997 l 17.3,-10 17.3,10 -17.3,9.999997 v 10 z" style="fill:#ffc080;stroke:#000;stroke-width:.5"/><path id="path110" d="m -17.3,54.996426 v -10 L 0,34.996429 17.3,44.996426 v 10 l -17.3,10 z" style="fill:#ffff80;stroke:#000;stroke-width:.5"/><path id="path112" d="m 17.3,54.996426 v -10 L 0,34.996429 l 17.3,-10 17.3,10 v 9.999997 z" style="fill:#c0ff80;stroke:#000;stroke-width:.5"/><path id="path114" d="m 34.6,44.996426 v -9.999997 l -17.3,-10 8.7,-5 V 9.9964288 l 17.3,10.0000002 8.7,-5 v 20 z" style="fill:#80ff80;stroke:#000;stroke-width:.5"/><path id="path116" d="m 52,14.996429 -8.7,5 L 26,9.9964288 V -10.003571 L 43.3,-0.00357125 52,-5.0035712 Z" style="fill:#80ffc0;stroke:#000;stroke-width:.5"/><path id="path118" d="M 52,-5.0035712 43.3,-0.00357125 26,-10.003571 v -20 l 8.6,-5 17.4,10 z" style="fill:#80ffff;stroke:#000;stroke-width:.5"/><path id="path120" d="m 34.6,-35.003571 -8.6,5 v 20 l -17.3,-10 v -20 l 8.6,-5 z" style="fill:#80c0ff;stroke:#000;stroke-width:.5"/><path id="path122" d="m 17.3,-45.003571 -8.6,5 v 20 l -8.7,-5 -8.7,5 v -20 l -8.6,-5 17.3,-10 z" style="fill:#8080ff;stroke:#000;stroke-width:.5"/><path id="path124" d="m -17.3,-45.003571 8.6,5 v 20 l -17.3,10 v -20 l -8.6,-5 z" style="fill:#c080ff;stroke:#000;stroke-width:.5"/><path id="path126" d="m -34.6,-35.003571 8.6,5 v 20 L -43.3,-0.00357125 -52,-5.0035712 V -25.003571 Z" style="fill:#ff80ff;stroke:#000;stroke-width:.5"/><path id="path128" d="m -52,-5.0035712 8.7,4.99999995 L -26,-10.003571 V 9.9964288 l -17.3,10.0000002 -8.7,-5 z" style="fill:#ff80c0;stroke:#000;stroke-width:.5"/><path id="path130" d="M -26,9.9964288 -8.7,-0.00357125 V 9.9964288 l 8.7,5.0000002 -17.3,10 -8.7,-5 z" style="fill:#c08080;stroke:#000;stroke-width:.5"/><path id="path132" d="m -17.3,24.996429 17.3,-10 17.3,10 -17.3,10 z" style="fill:#c0c080;stroke:#000;stroke-width:.5"/><path id="path134" d="m 17.3,24.996429 -17.3,-10 8.7,-5.0000002 V -0.00357125 L 26,9.9964288 V 19.996429 Z" style="fill:#80c080;stroke:#000;stroke-width:.5"/><path id="path136" d="M 26,9.9964288 8.7,-0.00357125 V -20.003571 l 17.3,10 z" style="fill:#80c0c0;stroke:#000;stroke-width:.5"/><path id="path138" d="M 8.7,-20.003571 V -0.00357125 L 0,-5.0035712 -8.7,-0.00357125 V -20.003571 l 8.7,-5 z" style="fill:#8080c0;stroke:#000;stroke-width:.5"/><path id="path140" d="M -8.7,-20.003571 V -0.00357125 L -26,9.9964288 V -10.003571 Z" style="fill:#c080c0;stroke:#000;stroke-width:.5"/><path id="path142" d="M 0,14.996429 8.7,9.9964288 V -0.00357125 L 0,-5.0035712 -8.7,-0.00357125 V 9.9964288 Z" style="fill:gray;stroke:#000;stroke-width:.5"/><polyline style="fill:none;stroke:#000;stroke-width:.0125" id="polyline144" points="-.866 .5 0 1 .866 .5 .866 -.5 0 -1 -.866 -.5 -.866 .5" class="line" transform="matrix(100,0,0,100,0,4.9964288)"/><polyline style="fill:none;stroke:#000;stroke-width:.0125" id="polyline146" points="0 1 0 .5" class="line" transform="matrix(100,0,0,100,0,4.9964288)"/><polyline style="fill:none;stroke:#000;stroke-width:.0125" id="polyline148" points=".866 -.5 .433 -.25" class="line" transform="matrix(100,0,0,100,0,4.9964288)"/><polyline style="fill:none;stroke:#000;stroke-width:.0125" id="polyline150" points="-.866 -.5 -.433 -.25" class="line" transform="matrix(100,0,0,100,0,4.9964288)"/><polyline style="fill:none;stroke:#000;stroke-width:.0125" id="polyline152" points="0 .5 .433 .25" class="dash" transform="matrix(100,0,0,100,0,4.9964288)"/><polyline style="fill:none;stroke:#000;stroke-width:.0125" id="polyline154" points=".433 .25 .433 -.25" class="dash" transform="matrix(100,0,0,100,0,4.9964288)"/><polyline style="fill:none;stroke:#000;stroke-width:.0125" id="polyline156" points=".433 -.25 0 -.5" class="dash" transform="matrix(100,0,0,100,0,4.9964288)"/><polyline style="fill:none;stroke:#000;stroke-width:.0125" id="polyline158" points="0 -.5 -.433 -.25" class="dash" transform="matrix(100,0,0,100,0,4.9964288)"/><polyline style="fill:none;stroke:#000;stroke-width:.0125" id="polyline160" points="-.433 -.25 -.433 .25" class="dash" transform="matrix(100,0,0,100,0,4.9964288)"/><polyline style="fill:none;stroke:#000;stroke-width:.0125" id="polyline162" points="-.433 .25 0 .5" class="dash" transform="matrix(100,0,0,100,0,4.9964288)"/><polyline style="fill:none;stroke:#000;stroke-width:.0125" id="polyline164" points="-.433 .25 0 0" class="dash" transform="matrix(100,0,0,100,0,4.9964288)"/><polyline style="fill:none;stroke:#000;stroke-width:.0125" id="polyline166" points=".433 .25 0 0" class="dash" transform="matrix(100,0,0,100,0,4.9964288)"/><polyline style="fill:none;stroke:#000;stroke-width:.0125" id="polyline168" points="0 -.5 0 0" class="dash" transform="matrix(100,0,0,100,0,4.9964288)"/><path id="path170" d="m -77.9,59.996426 -17.4,10 4.4,2.5 h -17.4 v -10 l 4.4,2.5 17.3,-10 z" style="fill:#c00000;stroke:#000;stroke-width:1.25"/><path id="path172" d="m 0,-95.003574 v -19.999996 l -4.3,-2.5 8.6,-5 8.7,15 -4.3,-2.5 v 19.999996 z" style="fill:#0000c0;stroke:#000;stroke-width:1.25"/><path id="path174" d="m 86.6,54.996426 17.3,10 4.4,-2.5 v 10 H 90.9 l 4.4,-2.5 -17.4,-10 z" style="fill:#00c000;stroke:#000;stroke-width:1.25"/><text style="font-style:normal;font-variant:normal;font-weight:700;font-stretch:normal;line-height:0%;font-family:Tahoma;text-align:start;writing-mode:lr-tb;text-anchor:start;fill:#000;fill-opacity:1;stroke:none;stroke-width:1px;stroke-linecap:butt;stroke-linejoin:miter;stroke-opacity:1" id="text1957" x="18.182" y="-103.717" xml:space="preserve"><tspan id="tspan1959" x="18.182" y="-103.717" style="font-style:normal;font-variant:normal;font-weight:700;font-stretch:normal;font-size:20px;line-height:1;font-family:Cantarell;-inkscape-font-specification:'Cantarell Bold'">B</tspan></text><text style="font-style:normal;font-variant:normal;font-weight:700;font-stretch:normal;line-height:0%;font-family:Tahoma;text-align:start;writing-mode:lr-tb;text-anchor:start;fill:#000;fill-opacity:1;stroke:none;stroke-width:1px;stroke-linecap:butt;stroke-linejoin:miter;stroke-opacity:1" id="text1961" x="93.663" y="93.329" xml:space="preserve"><tspan id="tspan1963" x="93.663" y="93.329" style="font-style:normal;font-variant:normal;font-weight:700;font-stretch:normal;font-size:20px;line-height:1;font-family:Cantarell;-inkscape-font-specification:'Cantarell Bold'">G</tspan></text><text style="font-style:normal;font-variant:normal;font-weight:700;font-stretch:normal;line-height:0%;font-family:Tahoma;text-align:start;writing-mode:lr-tb;text-anchor:start;fill:#000;fill-opacity:1;stroke:none;stroke-width:1px;stroke-linecap:butt;stroke-linejoin:miter;stroke-opacity:1" id="text1965" x="-110.779" y="92.945" xml:space="preserve"><tspan id="tspan1967" x="-110.779" y="92.945" style="font-style:normal;font-variant:normal;font-weight:700;font-stretch:normal;font-size:20px;line-height:1;font-family:Cantarell;-inkscape-font-specification:'Cantarell Bold'">R</tspan></text><path style="opacity:1;fill:none;fill-opacity:1;stroke:#000;stroke-width:1;stroke-miterlimit:4;stroke-dasharray:none;stroke-opacity:1" id="rect4610" d="m 13.241879,31.363619 9.720208,6.71752 -50.796796,92.530011 -34.078519,-23.82066 z"/><circle style="opacity:1;fill:#c0ff80;fill-opacity:1;stroke:#000;stroke-width:1;stroke-miterlimit:4;stroke-dasharray:none;stroke-opacity:1" id="path4608-3" cx="-46.625" cy="121.371" r="21.19"/><text style="font-style:normal;font-variant:normal;font-weight:400;font-stretch:normal;font-size:20px;line-height:1.25;font-family:Cantarell;-inkscape-font-specification:Cantarell;letter-spacing:0;word-spacing:0;fill:#000;fill-opacity:1;stroke:none;stroke-width:.5" id="text4712" x="-10" y="129.628" xml:space="preserve"><tspan id="tspan4710" x="-10" y="129.628" style="font-style:normal;font-variant:normal;font-weight:400;font-stretch:normal;font-size:16px;font-family:Cantarell;-inkscape-font-specification:Cantarell;stroke-width:.5">R=4/5</tspan><tspan style="font-style:normal;font-variant:normal;font-weight:400;font-stretch:normal;font-size:16px;font-family:Cantarell;-inkscape-font-specification:Cantarell;stroke-width:.5" id="tspan4714" x="-10" y="154.628">G=5/5</tspan><tspan style="font-style:normal;font-variant:normal;font-weight:400;font-stretch:normal;font-size:16px;font-family:Cantarell;-inkscape-font-specification:Cantarell;stroke-width:.5" id="tspan4716" x="-10" y="179.628">B=3/5</tspan></text><circle style="opacity:1;fill:#c0ff80;fill-opacity:1;stroke:#000;stroke-width:1;stroke-miterlimit:4;stroke-dasharray:none;stroke-opacity:1" id="path4608" cx="17.688" cy="35.309" r="6.063"/></svg>