<svg xmlns="http://www.w3.org/2000/svg" xmlns:svg="http://www.w3.org/2000/svg" id="svg2" width="501.781" height="629.688" version="1.1"><defs id="defs4"><marker id="Arrow2Lend" orient="auto" refX="0" refY="0" style="overflow:visible"><path id="path3961" d="M 8.7185878,4.0337352 -2.2072895,0.01601326 8.7185884,-4.0017078 c -1.7454984,2.3720609 -1.7354408,5.6174519 -6e-7,8.035443 z" transform="matrix(-1.1,0,0,-1.1,-1.1,0)" style="fill-rule:evenodd;stroke-width:.625;stroke-linejoin:round"/></marker><marker id="Arrow2Lend-4" orient="auto" refX="0" refY="0" style="overflow:visible"><path id="path3961-0" d="M 8.7185878,4.0337352 -2.2072895,0.01601326 8.7185884,-4.0017078 c -1.7454984,2.3720609 -1.7354408,5.6174519 -6e-7,8.035443 z" transform="matrix(-1.1,0,0,-1.1,-1.1,0)" style="fill-rule:evenodd;stroke-width:.625;stroke-linejoin:round"/></marker><marker id="Arrow2Lend-0" orient="auto" refX="0" refY="0" style="overflow:visible"><path id="path3961-7" d="M 8.7185878,4.0337352 -2.2072895,0.01601326 8.7185884,-4.0017078 c -1.7454984,2.3720609 -1.7354408,5.6174519 -6e-7,8.035443 z" transform="matrix(-1.1,0,0,-1.1,-1.1,0)" style="fill-rule:evenodd;stroke-width:.625;stroke-linejoin:round"/></marker><marker id="Arrow2Lend-8" orient="auto" refX="0" refY="0" style="overflow:visible"><path id="path3961-4" d="M 8.7185878,4.0337352 -2.2072895,0.01601326 8.7185884,-4.0017078 c -1.7454984,2.3720609 -1.7354408,5.6174519 -6e-7,8.035443 z" transform="matrix(-1.1,0,0,-1.1,-1.1,0)" style="fill-rule:evenodd;stroke-width:.625;stroke-linejoin:round"/></marker></defs><metadata id="metadata7"/><g id="layer1" transform="translate(-104.17858,-117.49065)"><rect style="fill:#280b0b;fill-opacity:1" id="rect2985" width="425.714" height="228.571" x="141.429" y="270.076"/><rect style="fill:#280b0b;fill-opacity:1" id="rect2987" width="131.429" height="34.286" x="288.571" y="248.076"/><g id="g3150" transform="translate(97.142857,2.8571429)"><rect id="rect2986" width="42.857" height="48.571" x="80" y="312.362" style="fill:#a80;fill-opacity:1"/><rect id="rect2986-3" width="42.857" height="48.571" x="156.429" y="312.362" style="fill:#a80;fill-opacity:1"/><rect id="rect2986-3-6" width="42.857" height="48.571" x="232.857" y="312.362" style="fill:#a80;fill-opacity:1"/><rect id="rect2986-3-6-4" width="42.857" height="48.571" x="309.286" y="312.362" style="fill:#a80;fill-opacity:1"/><rect id="rect2986-3-6-4-9" width="42.857" height="48.571" x="385.714" y="312.362" style="fill:#a80;fill-opacity:1"/></g><g id="g3157" transform="translate(95.714299,2.8571429)"><rect id="rect2986-3-6-4-9-7" width="42.857" height="48.571" x="81.429" y="403.791" style="fill:#a80;fill-opacity:1"/><rect id="rect2986-3-6-4-9-7-5" width="42.857" height="48.571" x="158.571" y="403.791" style="fill:#a80;fill-opacity:1"/><rect id="rect2986-3-6-4-9-7-5-3" width="42.857" height="48.571" x="235.714" y="403.791" style="fill:#a80;fill-opacity:1"/><rect id="rect2986-3-6-4-9-7-5-3-0" width="42.857" height="48.571" x="312.857" y="403.791" style="fill:#a80;fill-opacity:1"/><rect id="rect2986-3-6-4-9-7-5-3-0-9" width="42.857" height="48.571" x="390" y="403.791" style="fill:#a80;fill-opacity:1"/></g><path style="fill:none;stroke:#000;stroke-width:2;stroke-linecap:butt;stroke-linejoin:miter;stroke-miterlimit:4;stroke-dasharray:none;stroke-opacity:1;marker-end:url(#Arrow2Lend)" id="path3166" d="m 196.37674,197.85409 v 54.73047"/><text style="font-style:normal;font-weight:400;line-height:0%;font-family:sans-serif;-inkscape-font-specification:Sans;letter-spacing:0;word-spacing:0;fill:#000;fill-opacity:1;stroke:none" id="text4380" x="163.429" y="186.648" xml:space="preserve"><tspan id="tspan4382" x="163.429" y="186.648" style="font-size:28px;line-height:1.25;font-family:sans-serif">PWR</tspan></text><path style="fill:none;stroke:#000;stroke-width:2;stroke-linecap:butt;stroke-linejoin:miter;stroke-miterlimit:4;stroke-dasharray:none;stroke-opacity:1;marker-end:url(#Arrow2Lend)" id="path3166-7" d="M 198.10791,571.00744 V 516.27697"/><text style="font-style:normal;font-weight:400;line-height:0%;font-family:sans-serif;-inkscape-font-specification:Sans;letter-spacing:0;word-spacing:0;fill:#000;fill-opacity:1;stroke:none" id="text4380-7" x="166.005" y="601.986" xml:space="preserve"><tspan id="tspan4382-1" x="166.005" y="601.986" style="font-size:28px;line-height:1.25;font-family:sans-serif">GND</tspan></text><path style="fill:none;stroke:#000;stroke-width:2;stroke-linecap:butt;stroke-linejoin:miter;stroke-miterlimit:4;stroke-dasharray:none;stroke-opacity:1;marker-end:url(#Arrow2Lend)" id="path3166-7-7" d="M 354.42808,571.93927 V 517.2088"/><text style="font-style:normal;font-weight:400;line-height:0%;font-family:sans-serif;-inkscape-font-specification:Sans;letter-spacing:0;word-spacing:0;fill:#000;fill-opacity:1;stroke:none" id="text4380-7-7" x="325.075" y="602.918" xml:space="preserve"><tspan id="tspan4382-1-3" x="325.075" y="602.918" style="font-size:28px;line-height:1.25;font-family:sans-serif">SDA</tspan></text><path style="fill:none;stroke:#000;stroke-width:1px;stroke-linecap:butt;stroke-linejoin:miter;stroke-opacity:1" id="path4444" d="m 354.87332,592.72559 v 0"/><path style="fill:none;stroke:#000;stroke-width:2;stroke-linecap:butt;stroke-linejoin:miter;stroke-miterlimit:4;stroke-dasharray:none;stroke-opacity:1;marker-end:url(#Arrow2Lend)" id="path3166-5" d="m 347.63319,173.47807 v 54.73047"/><text style="font-style:normal;font-weight:400;line-height:0%;font-family:sans-serif;-inkscape-font-specification:Sans;letter-spacing:0;word-spacing:0;fill:#000;fill-opacity:1;stroke:none" id="text4380-2" x="319.826" y="148.272" xml:space="preserve"><tspan id="tspan4382-11" x="319.826" y="148.272" style="font-size:28px;line-height:1.25;font-family:sans-serif">SCL</tspan></text><circle style="fill:#aa2000;fill-opacity:1;stroke:#00f;stroke-width:0;stroke-miterlimit:4;stroke-dasharray:none;stroke-opacity:1" id="path4476" cx="199.286" cy="340.219" r="10.714" transform="translate(-0.5000033,91.071427)"/><circle style="fill:#aa2000;fill-opacity:1;stroke:#00f;stroke-width:0;stroke-miterlimit:4;stroke-dasharray:none;stroke-opacity:1" id="path4476-0" cx="199.286" cy="340.219" r="10.714" transform="translate(-0.5000033,0.57142418)"/><circle style="fill:#aa2000;fill-opacity:1;stroke:#00f;stroke-width:0;stroke-miterlimit:4;stroke-dasharray:none;stroke-opacity:1" id="path4476-0-5" cx="199.286" cy="340.219" r="10.714" transform="translate(151.2857,0.57142418)"/><circle style="fill:#aa2000;fill-opacity:1;stroke:#00f;stroke-width:0;stroke-miterlimit:4;stroke-dasharray:none;stroke-opacity:1" id="path4476-0-5-6" cx="199.286" cy="340.219" r="10.714" transform="translate(151.2857,91.071427)"/><text style="font-style:normal;font-weight:400;line-height:0%;font-family:sans-serif;-inkscape-font-specification:Sans;letter-spacing:0;word-spacing:0;fill:#000;fill-opacity:1;stroke:none" id="text4532" x="131.429" y="690.934" xml:space="preserve"><tspan id="tspan4534" x="131.429" y="690.934" style="font-size:40px;line-height:1.25;font-family:sans-serif">Nunchuk i2c pinout</tspan><tspan style="font-style:normal;font-variant:normal;font-weight:400;font-stretch:normal;font-size:21.33333397px;line-height:1.25;font-family:sans-serif;-inkscape-font-specification:'sans-serif, Normal';font-variant-ligatures:normal;font-variant-caps:normal;font-variant-numeric:normal;font-feature-settings:normal;text-align:start;writing-mode:lr-tb;text-anchor:start" id="tspan3379" x="131.429" y="724.418">(UEXT connector from Olimex, front view)</tspan></text></g></svg>