<svg xmlns="http://www.w3.org/2000/svg" xmlns:svg="http://www.w3.org/2000/svg" xmlns:xlink="http://www.w3.org/1999/xlink" id="svg2" width="520.776" height="330.392" version="1.0"><defs id="defs4"><linearGradient id="linearGradient4246"><stop style="stop-color:#686868;stop-opacity:1" id="stop4248" offset="0"/><stop style="stop-color:#d4d4d4;stop-opacity:1" id="stop4250" offset="1"/></linearGradient><linearGradient id="linearGradient3602"><stop id="stop3604" offset="0" style="stop-color:#a2a2a2;stop-opacity:1"/><stop id="stop3606" offset="1" style="stop-color:#606060;stop-opacity:1"/></linearGradient><linearGradient id="linearGradient3584"><stop style="stop-color:#1a1a1a;stop-opacity:1" id="stop3586" offset="0"/><stop style="stop-color:#595959;stop-opacity:1" id="stop3588" offset="1"/></linearGradient><linearGradient id="linearGradient3461"><stop style="stop-color:#a2a2a2;stop-opacity:1" id="stop3463" offset="0"/><stop style="stop-color:#dfdfdf;stop-opacity:1" id="stop3465" offset="1"/></linearGradient><linearGradient id="linearGradient3467" x1="397.475" x2="425.057" y1="485.235" y2="485.235" gradientUnits="userSpaceOnUse" xlink:href="#linearGradient3461"/><linearGradient id="linearGradient3469" x1="397.475" x2="425.057" y1="505.855" y2="505.855" gradientUnits="userSpaceOnUse" xlink:href="#linearGradient3461"/><linearGradient id="linearGradient3471" x1="397.475" x2="425.057" y1="464.614" y2="464.614" gradientUnits="userSpaceOnUse" xlink:href="#linearGradient3461"/><linearGradient id="linearGradient3473" x1="397.475" x2="425.057" y1="443.994" y2="443.994" gradientUnits="userSpaceOnUse" xlink:href="#linearGradient3461"/><linearGradient id="linearGradient3475" x1="397.475" x2="425.057" y1="423.373" y2="423.373" gradientUnits="userSpaceOnUse" xlink:href="#linearGradient3461"/><linearGradient id="linearGradient3477" x1="397.475" x2="425.057" y1="402.752" y2="402.752" gradientUnits="userSpaceOnUse" xlink:href="#linearGradient3461"/><linearGradient id="linearGradient3479" x1="397.475" x2="425.057" y1="382.132" y2="382.132" gradientUnits="userSpaceOnUse" xlink:href="#linearGradient3461"/><linearGradient id="linearGradient3481" x1="397.475" x2="425.057" y1="361.511" y2="361.511" gradientUnits="userSpaceOnUse" xlink:href="#linearGradient3461"/><linearGradient id="linearGradient3483" x1="397.475" x2="425.057" y1="340.89" y2="340.89" gradientUnits="userSpaceOnUse" xlink:href="#linearGradient3461"/><linearGradient id="linearGradient3485" x1="397.475" x2="425.057" y1="320.27" y2="320.27" gradientUnits="userSpaceOnUse" xlink:href="#linearGradient3461"/><linearGradient id="linearGradient3487" x1="397.475" x2="425.057" y1="299.649" y2="299.649" gradientUnits="userSpaceOnUse" xlink:href="#linearGradient3461"/><linearGradient id="linearGradient3489" x1="397.475" x2="425.057" y1="279.029" y2="279.029" gradientUnits="userSpaceOnUse" xlink:href="#linearGradient3461"/><linearGradient id="linearGradient3527" x1="220.144" x2="247.725" y1="341.934" y2="341.934" gradientTransform="translate(-467.86913)" gradientUnits="userSpaceOnUse" xlink:href="#linearGradient3461"/><linearGradient id="linearGradient3529" x1="220.144" x2="247.725" y1="486.278" y2="486.278" gradientTransform="translate(-467.86913)" gradientUnits="userSpaceOnUse" xlink:href="#linearGradient3461"/><linearGradient id="linearGradient3531" x1="228.144" x2="247.042" y1="506.898" y2="506.898" gradientTransform="translate(-467.86913)" gradientUnits="userSpaceOnUse" xlink:href="#linearGradient3461"/><linearGradient id="linearGradient3533" x1="220.144" x2="247.725" y1="465.657" y2="465.657" gradientTransform="translate(-467.86913)" gradientUnits="userSpaceOnUse" xlink:href="#linearGradient3461"/><linearGradient id="linearGradient3535" x1="220.144" x2="247.725" y1="445.037" y2="445.037" gradientTransform="translate(-467.86913)" gradientUnits="userSpaceOnUse" xlink:href="#linearGradient3461"/><linearGradient id="linearGradient3537" x1="220.144" x2="247.725" y1="424.416" y2="424.416" gradientTransform="translate(-467.86913)" gradientUnits="userSpaceOnUse" xlink:href="#linearGradient3461"/><linearGradient id="linearGradient3539" x1="220.144" x2="247.725" y1="403.795" y2="403.795" gradientTransform="translate(-467.86913)" gradientUnits="userSpaceOnUse" xlink:href="#linearGradient3461"/><linearGradient id="linearGradient3541" x1="220.144" x2="247.725" y1="383.175" y2="383.175" gradientTransform="translate(-467.86913)" gradientUnits="userSpaceOnUse" xlink:href="#linearGradient3461"/><linearGradient id="linearGradient3543" x1="220.144" x2="247.725" y1="362.554" y2="362.554" gradientTransform="translate(-467.86913)" gradientUnits="userSpaceOnUse" xlink:href="#linearGradient3461"/><linearGradient id="linearGradient3545" x1="220.144" x2="247.725" y1="321.313" y2="321.313" gradientTransform="translate(-467.86913)" gradientUnits="userSpaceOnUse" xlink:href="#linearGradient3461"/><linearGradient id="linearGradient3547" x1="220.144" x2="247.725" y1="300.692" y2="300.692" gradientTransform="translate(-467.86913)" gradientUnits="userSpaceOnUse" xlink:href="#linearGradient3461"/><linearGradient id="linearGradient3549" x1="220.144" x2="247.725" y1="280.072" y2="280.072" gradientTransform="translate(-467.86913)" gradientUnits="userSpaceOnUse" xlink:href="#linearGradient3461"/><linearGradient id="linearGradient3553" x1="220.144" x2="247.725" y1="486.278" y2="486.278" gradientTransform="translate(-468.03512,20.706716)" gradientUnits="userSpaceOnUse" xlink:href="#linearGradient3461"/><linearGradient id="linearGradient3560" x1="400.175" x2="452.054" y1="506.935" y2="506.395" gradientUnits="userSpaceOnUse" xlink:href="#linearGradient3461"/><linearGradient id="linearGradient3568" x1="247.906" x2="187.781" y1="534.828" y2="534.288" gradientUnits="userSpaceOnUse" xlink:href="#linearGradient3461"/><linearGradient id="linearGradient3576" x1="305.443" x2="333.025" y1="287.223" y2="287.223" gradientUnits="userSpaceOnUse" xlink:href="#linearGradient3461"/><linearGradient id="linearGradient3578" x1="305.443" x2="333.025" y1="287.223" y2="287.223" gradientUnits="userSpaceOnUse" xlink:href="#linearGradient3461"/><linearGradient id="linearGradient3580" x1="305.443" x2="333.025" y1="287.223" y2="287.223" gradientUnits="userSpaceOnUse" xlink:href="#linearGradient3461"/><linearGradient id="linearGradient3582" x1="305.443" x2="333.025" y1="287.223" y2="287.223" gradientUnits="userSpaceOnUse" xlink:href="#linearGradient3461"/><linearGradient id="linearGradient3590" x1="260.833" x2="393.475" y1="512.58" y2="276.622" gradientUnits="userSpaceOnUse" xlink:href="#linearGradient3584"/><linearGradient id="linearGradient3600" x1="200.117" x2="174.256" y1="368.094" y2="371.511" gradientTransform="translate(189.22359,-547.60026)" gradientUnits="userSpaceOnUse" xlink:href="#linearGradient3602"/><linearGradient id="linearGradient3610" x1="200.117" x2="174.256" y1="368.094" y2="371.511" gradientTransform="translate(-423.16756,-756.27813)" gradientUnits="userSpaceOnUse" xlink:href="#linearGradient3602"/><linearGradient id="linearGradient3613" x1="305.443" x2="333.025" y1="287.223" y2="287.223" gradientTransform="translate(-657.14583,-515.37664)" gradientUnits="userSpaceOnUse" xlink:href="#linearGradient3461"/><linearGradient id="linearGradient3616" x1="305.443" x2="333.025" y1="287.223" y2="287.223" gradientTransform="translate(-578.45632,-610.05669)" gradientUnits="userSpaceOnUse" xlink:href="#linearGradient3461"/><linearGradient id="linearGradient3619" x1="305.443" x2="333.025" y1="287.223" y2="287.223" gradientTransform="translate(-500.10247,-658.88045)" gradientUnits="userSpaceOnUse" xlink:href="#linearGradient3461"/><linearGradient id="linearGradient4252" x1="-71.779" x2="42.762" y1="346.411" y2="245.615" gradientUnits="userSpaceOnUse" xlink:href="#linearGradient4246"/><linearGradient id="linearGradient4260" x1="61.088" x2="-90.105" y1="249.433" y2="343.357" gradientUnits="userSpaceOnUse" xlink:href="#linearGradient4246"/><linearGradient id="linearGradient4276" x1="-29.017" x2="3.818" y1="221.18" y2="221.18" gradientTransform="translate(-3.0544131,-7.6360327)" gradientUnits="userSpaceOnUse" xlink:href="#linearGradient4246"/><linearGradient id="linearGradient4284" x1="-29.017" x2="3.818" y1="221.18" y2="221.18" gradientTransform="translate(-3.0544131,-7.6360327)" gradientUnits="userSpaceOnUse" xlink:href="#linearGradient4246"/><linearGradient id="linearGradient4286" x1="-71.779" x2="42.762" y1="346.411" y2="245.615" gradientUnits="userSpaceOnUse" xlink:href="#linearGradient4246"/><linearGradient id="linearGradient4288" x1="61.088" x2="-90.105" y1="249.433" y2="343.357" gradientUnits="userSpaceOnUse" xlink:href="#linearGradient4246"/></defs><g id="layer1" transform="translate(53.42502,-227.67066)"><path style="fill:none;fill-rule:evenodd;stroke:green;stroke-width:4;stroke-linecap:butt;stroke-linejoin:miter;stroke-miterlimit:4;stroke-dasharray:none;stroke-opacity:1" id="path4290" d="m 24.435305,404.06301 c -0.86771,3.30964 -2.29081,11.78729 -2.29081,17.56287 0,5.96434 -2.78904,14.74132 -5.345223,19.85369 -3.136502,6.273 -6.8608231,2.86641 -12.2176524,1.52721 -12.4894634,-3.12237 -5.650871,-6.87243 3.0544131,-6.87243 8.0693353,0 14.6607123,3.43504 17.5628753,10.69044 2.20977,5.52443 1.098303,15.12577 0,20.61729 -1.029466,5.14733 -6.408055,2.55652 0.763603,0.7636 6.368072,-1.59201 10.741249,-3.05441 17.562875,-3.05441 6.733554,0 7.875257,5.53852 9.163239,10.69045 1.671985,6.68794 -3.833276,9.31901 -6.872429,9.92684 -6.13914,1.22783 10.538553,-8.39964 16.799272,-8.39964 1.018138,0 2.036275,0 3.054413,0 6.232013,0 14.738712,8.27432 17.562875,12.98126 2.21756,3.69593 -5.896922,5.13332 1.527207,-2.29081 4.864808,-4.86481 18.081317,-5.40651 24.435307,-3.81802 8.32462,2.08116 11.17991,8.83031 12.98125,16.03567 0.76244,3.04975 -6.10882,11.06397 -6.10882,3.81802 0,-6.58616 15.29128,-9.16324 19.85368,-9.16324 9.08278,0 14.73471,9.75713 16.03567,17.56287 1.33904,8.03426 -4.78876,9.44024 4.58162,3.81802 5.09812,-3.05887 16.11885,-2.10482 21.38089,0 7.25543,2.90217 11.2796,8.57409 6.10883,13.74486 -6.48655,6.48654 -12.67322,-2.79556 -16.03567,-8.39964 -5.79311,-9.65517 6.18563,-10.69044 12.21765,-10.69044 10.17594,0 19.45193,4.19582 29.01693,6.10882 5.90098,1.1802 11.34694,3.98214 16.79927,5.34523 1.73371,0.43342 1.83545,0.36709 3.81801,0.7636"/><rect style="fill:url(#linearGradient3590);fill-opacity:1;stroke:none;stroke-width:1;stroke-linecap:round;stroke-linejoin:round;stroke-miterlimit:4;stroke-dasharray:none;stroke-opacity:1" id="rect2383" width="154.24" height="248.571" x="245.714" y="269.505"/><rect style="fill:url(#linearGradient3549);fill-opacity:1;stroke:none;stroke-width:1;stroke-linecap:round;stroke-linejoin:round;stroke-miterlimit:4;stroke-dasharray:none;stroke-opacity:1" id="rect3155" width="27.582" height="10.215" x="-247.725" y="274.964" transform="scale(-1,1)"/><rect style="fill:url(#linearGradient3547);fill-opacity:1;stroke:none;stroke-width:1;stroke-linecap:round;stroke-linejoin:round;stroke-miterlimit:4;stroke-dasharray:none;stroke-opacity:1" id="rect3196" width="27.582" height="10.215" x="-247.725" y="295.585" transform="scale(-1,1)"/><rect style="fill:url(#linearGradient3545);fill-opacity:1;stroke:none;stroke-width:1;stroke-linecap:round;stroke-linejoin:round;stroke-miterlimit:4;stroke-dasharray:none;stroke-opacity:1" id="rect3198" width="27.582" height="10.215" x="-247.725" y="316.205" transform="scale(-1,1)"/><rect style="fill:url(#linearGradient3543);fill-opacity:1;stroke:none;stroke-width:1;stroke-linecap:round;stroke-linejoin:round;stroke-miterlimit:4;stroke-dasharray:none;stroke-opacity:1" id="rect3202" width="27.582" height="10.215" x="-247.725" y="357.446" transform="scale(-1,1)"/><rect style="fill:url(#linearGradient3541);fill-opacity:1;stroke:none;stroke-width:1;stroke-linecap:round;stroke-linejoin:round;stroke-miterlimit:4;stroke-dasharray:none;stroke-opacity:1" id="rect3204" width="27.582" height="10.215" x="-247.725" y="378.067" transform="scale(-1,1)"/><rect style="fill:url(#linearGradient3539);fill-opacity:1;stroke:none;stroke-width:1;stroke-linecap:round;stroke-linejoin:round;stroke-miterlimit:4;stroke-dasharray:none;stroke-opacity:1" id="rect3206" width="27.582" height="10.215" x="-247.725" y="398.688" transform="scale(-1,1)"/><rect style="fill:url(#linearGradient3537);fill-opacity:1;stroke:none;stroke-width:1;stroke-linecap:round;stroke-linejoin:round;stroke-miterlimit:4;stroke-dasharray:none;stroke-opacity:1" id="rect3208" width="27.582" height="10.215" x="-247.725" y="419.308" transform="scale(-1,1)"/><rect style="fill:url(#linearGradient3535);fill-opacity:1;stroke:none;stroke-width:1;stroke-linecap:round;stroke-linejoin:round;stroke-miterlimit:4;stroke-dasharray:none;stroke-opacity:1" id="rect3210" width="27.582" height="10.215" x="-247.725" y="439.929" transform="scale(-1,1)"/><rect style="fill:url(#linearGradient3533);fill-opacity:1;stroke:none;stroke-width:1;stroke-linecap:round;stroke-linejoin:round;stroke-miterlimit:4;stroke-dasharray:none;stroke-opacity:1" id="rect3212" width="27.582" height="10.215" x="-247.725" y="460.55" transform="scale(-1,1)"/><rect style="fill:url(#linearGradient3531);fill-opacity:1;stroke:none;stroke-width:1;stroke-linecap:round;stroke-linejoin:round;stroke-miterlimit:4;stroke-dasharray:none;stroke-opacity:1" id="rect3214" width="18.899" height="10.215" x="-239.725" y="501.791" transform="scale(-1,1)"/><rect style="fill:url(#linearGradient3529);fill-opacity:1;stroke:none;stroke-width:1;stroke-linecap:round;stroke-linejoin:round;stroke-miterlimit:4;stroke-dasharray:none;stroke-opacity:1" id="rect3216" width="27.582" height="10.215" x="-247.725" y="481.17" transform="scale(-1,1)"/><path style="fill:url(#linearGradient3568);fill-opacity:1;stroke:none;stroke-width:1;stroke-linecap:round;stroke-linejoin:round;stroke-miterlimit:4;stroke-dasharray:none;stroke-opacity:1" id="rect3242" d="m 220.3125,501.875 v 10.21875 26.5625 h -32.53125 v 19.40625 h 38.84375 17.1875 v -45.96875 h 4.09375 V 501.875 h -4.09375 z"/><rect style="fill:url(#linearGradient3489);fill-opacity:1;stroke:none;stroke-width:1;stroke-linecap:round;stroke-linejoin:round;stroke-miterlimit:4;stroke-dasharray:none;stroke-opacity:1" id="rect3218" width="27.582" height="10.215" x="397.475" y="273.921"/><rect style="fill:url(#linearGradient3487);fill-opacity:1;stroke:none;stroke-width:1;stroke-linecap:round;stroke-linejoin:round;stroke-miterlimit:4;stroke-dasharray:none;stroke-opacity:1" id="rect3220" width="27.582" height="10.215" x="397.475" y="294.541"/><rect style="fill:url(#linearGradient3485);fill-opacity:1;stroke:none;stroke-width:1;stroke-linecap:round;stroke-linejoin:round;stroke-miterlimit:4;stroke-dasharray:none;stroke-opacity:1" id="rect3222" width="27.582" height="10.215" x="397.475" y="315.162"/><rect style="fill:url(#linearGradient3483);fill-opacity:1;stroke:none;stroke-width:1;stroke-linecap:round;stroke-linejoin:round;stroke-miterlimit:4;stroke-dasharray:none;stroke-opacity:1" id="rect3224" width="27.582" height="10.215" x="397.475" y="335.783"/><rect style="fill:url(#linearGradient3481);fill-opacity:1;stroke:none;stroke-width:1;stroke-linecap:round;stroke-linejoin:round;stroke-miterlimit:4;stroke-dasharray:none;stroke-opacity:1" id="rect3226" width="27.582" height="10.215" x="397.475" y="356.403"/><rect style="fill:url(#linearGradient3479);fill-opacity:1;stroke:none;stroke-width:1;stroke-linecap:round;stroke-linejoin:round;stroke-miterlimit:4;stroke-dasharray:none;stroke-opacity:1" id="rect3228" width="27.582" height="10.215" x="397.475" y="377.024"/><rect style="fill:url(#linearGradient3477);fill-opacity:1;stroke:none;stroke-width:1;stroke-linecap:round;stroke-linejoin:round;stroke-miterlimit:4;stroke-dasharray:none;stroke-opacity:1" id="rect3230" width="27.582" height="10.215" x="397.475" y="397.645"/><rect style="fill:url(#linearGradient3475);fill-opacity:1;stroke:none;stroke-width:1;stroke-linecap:round;stroke-linejoin:round;stroke-miterlimit:4;stroke-dasharray:none;stroke-opacity:1" id="rect3232" width="27.582" height="10.215" x="397.475" y="418.265"/><rect style="fill:url(#linearGradient3473);fill-opacity:1;stroke:none;stroke-width:1;stroke-linecap:round;stroke-linejoin:round;stroke-miterlimit:4;stroke-dasharray:none;stroke-opacity:1" id="rect3234" width="27.582" height="10.215" x="397.475" y="438.886"/><rect style="fill:url(#linearGradient3471);fill-opacity:1;stroke:none;stroke-width:1;stroke-linecap:round;stroke-linejoin:round;stroke-miterlimit:4;stroke-dasharray:none;stroke-opacity:1" id="rect3236" width="27.582" height="10.215" x="397.475" y="459.506"/><path style="fill:url(#linearGradient3560);fill-opacity:1;stroke:none;stroke-width:1;stroke-linecap:round;stroke-linejoin:round;stroke-miterlimit:4;stroke-dasharray:none;stroke-opacity:1" id="rect3238" d="m 397.46875,500.75 v 10.21875 h 2 3.25 v 46.0625 h 23.5 32.5 V 537.625 h -32.5 V 500.84375 H 425.0625 V 500.75 h -6.6875 -18.90625 z"/><rect style="fill:url(#linearGradient3467);fill-opacity:1;stroke:none;stroke-width:1;stroke-linecap:round;stroke-linejoin:round;stroke-miterlimit:4;stroke-dasharray:none;stroke-opacity:1" id="rect3240" width="27.582" height="10.215" x="397.475" y="480.127"/><rect style="fill:url(#linearGradient3619);fill-opacity:1;stroke:none;stroke-width:1;stroke-linecap:round;stroke-linejoin:round;stroke-miterlimit:4;stroke-dasharray:none;stroke-opacity:1" id="rect3283" width="27.582" height="10.215" x="-194.66" y="-397.386" transform="matrix(0.2106066,-0.9775709,-0.9775709,-0.2106066,0,0)"/><rect style="fill:url(#linearGradient3616);fill-opacity:1;stroke:none;stroke-width:1;stroke-linecap:round;stroke-linejoin:round;stroke-miterlimit:4;stroke-dasharray:none;stroke-opacity:1" id="rect3285" width="27.582" height="10.215" x="-273.013" y="-327.942" transform="matrix(0,-1,-1,0,0,0)"/><rect style="fill:url(#linearGradient3613);fill-opacity:1;stroke:none;stroke-width:1;stroke-linecap:round;stroke-linejoin:round;stroke-miterlimit:4;stroke-dasharray:none;stroke-opacity:1" id="rect3287" width="27.582" height="10.215" x="-351.703" y="-212.641" transform="matrix(-0.3015534,-0.9534493,-0.9534493,0.3015534,0,0)"/><ellipse style="fill:#fff;fill-opacity:1;stroke:none;stroke-width:1;stroke-linecap:round;stroke-linejoin:round;stroke-miterlimit:4;stroke-dasharray:none;stroke-opacity:1" id="path3294" cx="307.231" cy="311.229" rx="10.471" ry="19.409" transform="rotate(-10.260129,281.75092,344.89769)"/><ellipse style="fill:#00f;fill-opacity:1;stroke:none;stroke-width:1;stroke-linecap:round;stroke-linejoin:round;stroke-miterlimit:4;stroke-dasharray:none;stroke-opacity:1" id="path3296" cx="314.126" cy="309.952" rx="4.597" ry="2.809" transform="matrix(0.9840092,-0.1781175,0.2914651,1.610197,-97.288575,-133.59229)"/><ellipse style="fill:#fff;fill-opacity:1;stroke:none;stroke-width:1;stroke-linecap:round;stroke-linejoin:round;stroke-miterlimit:4;stroke-dasharray:none;stroke-opacity:1" id="path3310" cx="307.231" cy="311.229" rx="10.471" ry="19.409" transform="rotate(12.598032,344.15522,479.59622)"/><ellipse style="fill:#00f;fill-opacity:1;stroke:none;stroke-width:1;stroke-linecap:round;stroke-linejoin:round;stroke-miterlimit:4;stroke-dasharray:none;stroke-opacity:1" id="path3312" cx="314.126" cy="309.952" rx="4.597" ry="2.809" transform="matrix(1,0,0,1.6363637,31.611536,-197.45444)"/><g id="g3384" transform="translate(172)" style="stroke:#ff0505;stroke-width:3;stroke-miterlimit:4;stroke-dasharray:none;stroke-opacity:1"><path id="path3374" d="m 166.17937,350.15757 a 19.978115,10.259032 0 0 1 -18.77329,6.75024 19.978115,10.259032 0 0 1 -18.77329,-6.75024" style="fill:none;fill-opacity:1;stroke:#ff0505;stroke-width:3;stroke-linecap:round;stroke-linejoin:round;stroke-miterlimit:4;stroke-dasharray:none;stroke-opacity:1"/><path id="path3376" d="m 128.8248,350.04632 c 0.46513,-0.63653 0.69262,-1.42055 0.93642,-2.14039" style="fill:none;fill-rule:evenodd;stroke:#ff0505;stroke-width:3;stroke-linecap:round;stroke-linejoin:round;stroke-miterlimit:4;stroke-dasharray:none;stroke-opacity:1"/><path id="path3378" d="m 128.77189,350.08535 c -0.75427,-0.22934 -1.40721,-0.71936 -2.03462,-1.14827" style="fill:none;fill-rule:evenodd;stroke:#ff0505;stroke-width:3;stroke-linecap:round;stroke-linejoin:round;stroke-miterlimit:4;stroke-dasharray:none;stroke-opacity:1"/><path id="path3380" d="m 166.3426,349.97977 c -0.46513,-0.63653 -0.69262,-1.42055 -0.93642,-2.14039" style="fill:none;fill-rule:evenodd;stroke:#ff0505;stroke-width:3;stroke-linecap:round;stroke-linejoin:round;stroke-miterlimit:4;stroke-dasharray:none;stroke-opacity:1"/><path id="path3382" d="m 166.39551,350.0188 c 0.75427,-0.22934 1.40721,-0.71936 2.03462,-1.14827" style="fill:none;fill-rule:evenodd;stroke:#ff0505;stroke-width:3;stroke-linecap:round;stroke-linejoin:round;stroke-miterlimit:4;stroke-dasharray:none;stroke-opacity:1"/></g><g id="g3439" transform="translate(0,19.902755)"><rect id="rect3200" width="59.979" height="10.215" x="187.747" y="336.826" style="fill:#ababab;fill-opacity:1;stroke:none;stroke-width:1;stroke-linecap:round;stroke-linejoin:round;stroke-miterlimit:4;stroke-dasharray:none;stroke-opacity:1"/><rect id="rect3409" width="23.496" height="56.185" x="123.311" y="319.308" transform="rotate(-10.188885)" style="fill:#ababab;fill-opacity:1;stroke:none;stroke-width:1;stroke-linecap:round;stroke-linejoin:round;stroke-miterlimit:4;stroke-dasharray:none;stroke-opacity:1"/></g><g id="g3435" transform="translate(-41.12254,16.699869)"><rect id="rect3411" width="59.979" height="10.215" x="-498.576" y="338.986" transform="scale(-1,1)" style="fill:#ababab;fill-opacity:1;stroke:none;stroke-width:1;stroke-linecap:round;stroke-linejoin:round;stroke-miterlimit:4;stroke-dasharray:none;stroke-opacity:1"/><rect id="rect3413" width="23.496" height="56.185" x="-552.571" y="200.028" transform="matrix(-0.9842299,-0.1768938,-0.1768938,0.9842299,0,0)" style="fill:#ababab;fill-opacity:1;stroke:none;stroke-width:1;stroke-linecap:round;stroke-linejoin:round;stroke-miterlimit:4;stroke-dasharray:none;stroke-opacity:1"/></g><rect style="fill:url(#linearGradient3527);fill-opacity:1;stroke:none;stroke-width:1;stroke-linecap:round;stroke-linejoin:round;stroke-miterlimit:4;stroke-dasharray:none;stroke-opacity:1" id="rect3443" width="27.582" height="10.215" x="-247.725" y="336.826" transform="scale(-1,1)"/><rect style="fill:url(#linearGradient3610);fill-opacity:1;stroke:none;stroke-width:3;stroke-linecap:round;stroke-linejoin:round;stroke-miterlimit:4;stroke-dasharray:none;stroke-opacity:1" id="rect3608" width="23.218" height="4.32" x="-247.59" y="-388.635" transform="rotate(161.13517)"/><rect style="fill:url(#linearGradient3600);fill-opacity:1;stroke:none;stroke-width:3;stroke-linecap:round;stroke-linejoin:round;stroke-miterlimit:4;stroke-dasharray:none;stroke-opacity:1" id="rect3592" width="23.218" height="4.32" x="364.801" y="-179.957" transform="matrix(0.946284,0.3233367,0.3233367,-0.946284,0,0)"/><g id="g4278" transform="translate(42.761783,29.016924)"><rect id="rect4268" width="32.835" height="29.781" x="-32.071" y="198.654" style="fill:url(#linearGradient4284);fill-opacity:1;stroke:none;stroke-width:3;stroke-linecap:round;stroke-linejoin:round;stroke-miterlimit:4;stroke-dasharray:none;stroke-opacity:1"/><circle id="path3735" cx="-14.89" cy="296.777" r="79.797" style="fill:url(#linearGradient4286);fill-opacity:1;stroke:url(#linearGradient4288);stroke-width:3;stroke-linecap:round;stroke-linejoin:round;stroke-miterlimit:4;stroke-dasharray:none;stroke-opacity:1"/><rect id="rect4262" width="6.872" height="93.16" x="-18.326" y="222.325" style="fill:red;fill-opacity:1;stroke:none;stroke-width:3;stroke-linecap:round;stroke-linejoin:round;stroke-miterlimit:4;stroke-dasharray:none;stroke-opacity:1"/><circle id="path4264" cx="-16.417" cy="302.122" r="9.545" transform="translate(1.5272074)" style="fill:#000;fill-opacity:1;stroke:none;stroke-width:3;stroke-linecap:round;stroke-linejoin:round;stroke-miterlimit:4;stroke-dasharray:none;stroke-opacity:1"/></g></g><metadata id="metadata117"/></svg>