<svg xmlns="http://www.w3.org/2000/svg" xmlns:svg="http://www.w3.org/2000/svg" xmlns:xlink="http://www.w3.org/1999/xlink" id="svg2" width="631.928" height="615.731" version="1.1"><title id="title4177">Linux kernel interfaces</title><defs id="defs4"><clipPath id="clipPath41564" clipPathUnits="userSpaceOnUse"><path style="fill:red" id="path41566" d="m 174.5,296.28014 c -5.51259,-2.03807 -10.34186,-8.19825 -10.62251,-11.77821 -0.29919,-3.81655 -1.15094,-8.48442 -0.38112,-13.07572 0.76983,-4.5913 1.03992,-6.54512 2.06159,-15.5 1.02167,-8.95488 1.23198,-17.97057 1.31704,-27 0.11419,-12.37878 -1.20155,-17.40197 2.16585,-19.41154 3.59176,-2.14345 6.58085,0.0938 19.87048,1.23512 13.26514,1.13919 11.17045,1.14375 33.34778,-1.88946 3.28339,2.15136 4.74089,9.69394 4.74089,15.52314 0,4.13412 0.57858,5.59511 3.85961,9.74592 4.43289,5.60802 9.01923,9.67239 13.51027,11.97266 3.93389,2.01491 4.59575,3.02949 4.61481,7.07416 0.0214,4.55222 -5.52713,9.78373 -15.50307,14.61717 -11.13475,5.39489 -19.80304,11.22823 -27.98162,18.83027 -3.85,3.57859 -7.44517,6.73666 -10.5,8.3158 -3.05483,1.57914 -14.98741,3.37876 -20.5,1.34069 z"/></clipPath><clipPath id="clipPath37379" clipPathUnits="userSpaceOnUse"><path style="fill:red" id="path37381" d="m 66,295.50854 c -3.025001,-0.99557 -7.827467,-2.75099 -10.672148,-3.90095 -2.844682,-1.14995 -11.169682,-3.6476 -18.5,-5.55033 C 0.061499,276.51381 0,276.48883 0,271.0964 c 0,-1.66091 1.178942,-6.42866 2.619871,-10.59501 2.401288,-6.94316 2.55507,-8.32607 1.843187,-16.57518 -1.269513,-14.71075 -1.213131,-16.38184 0.656441,-19.4561 2.088387,-3.43408 6.811042,-5.03015 14.907995,-5.03832 6.726274,-0.007 8.976043,-1.43354 12.679933,-8.04134 2.191391,-3.90948 3.703577,-5.33075 7.024312,-6.602 5.596088,-2.14231 8.490903,-0.92905 15.470959,6.48409 5.324127,5.65446 7.285247,8.49547 19.434198,28.15367 3.569004,5.775 5.115714,7.17869 7.729554,11.5 2.61384,4.32131 12.39545,18.02175 12.63355,25.62784 0.2381,7.84418 -4.19375,12.76609 -7.26076,15.6474 -2.68631,2.52367 -9.85923,5.24795 -13.614967,5.17098 C 72.680923,297.34286 69.024999,296.5041 66,295.50854 Z"/></clipPath><radialGradient id="radialGradient26371" cx="143.875" cy="45.687" r="7.5" fx="143.875" fy="45.687" gradientTransform="matrix(1,0,0,0.775,0,10.279468)" gradientUnits="userSpaceOnUse" xlink:href="#linearGradient26333"/><radialGradient id="radialGradient26368" cx="143.875" cy="45.687" r="7.5" fx="143.875" fy="45.687" gradientTransform="matrix(1,0,0,0.775,0,10.279468)" gradientUnits="userSpaceOnUse" xlink:href="#linearGradient26333"/><radialGradient id="radialGradient26365" cx="143.875" cy="45.687" r="7.5" fx="143.875" fy="45.687" gradientTransform="matrix(1,0,0,0.775,0,10.279468)" gradientUnits="userSpaceOnUse" xlink:href="#linearGradient26333"/><radialGradient id="radialGradient26362" cx="143.875" cy="45.687" r="7.5" fx="143.875" fy="45.687" gradientTransform="matrix(1,0,0,0.775,0,10.279468)" gradientUnits="userSpaceOnUse" xlink:href="#linearGradient26333"/><radialGradient id="radialGradient26359" cx="143.875" cy="45.687" r="7.5" fx="143.875" fy="45.687" gradientTransform="matrix(1,0,0,0.775,0,10.279468)" gradientUnits="userSpaceOnUse" xlink:href="#linearGradient26333"/><radialGradient id="radialGradient26356" cx="143.875" cy="45.687" r="7.5" fx="143.875" fy="45.687" gradientTransform="matrix(1,0,0,0.775,0,10.279468)" gradientUnits="userSpaceOnUse" xlink:href="#linearGradient26333"/><radialGradient id="radialGradient26353" cx="143.875" cy="45.687" r="7.5" fx="143.875" fy="45.687" gradientTransform="matrix(1,0,0,0.775,0,10.279468)" gradientUnits="userSpaceOnUse" xlink:href="#linearGradient26333"/><radialGradient id="radialGradient26350" cx="143.875" cy="45.687" r="7.5" fx="143.875" fy="45.687" gradientTransform="matrix(1,0,0,0.775,0,10.279468)" gradientUnits="userSpaceOnUse" xlink:href="#linearGradient26333"/><radialGradient id="radialGradient26347" cx="143.875" cy="45.687" r="7.5" fx="143.875" fy="45.687" gradientTransform="matrix(1,0,0,0.775,0,10.279468)" gradientUnits="userSpaceOnUse" xlink:href="#linearGradient26333"/><radialGradient id="radialGradient26344" cx="143.875" cy="45.687" r="7.5" fx="143.875" fy="45.687" gradientTransform="matrix(1,0,0,0.775,0,10.279468)" gradientUnits="userSpaceOnUse" xlink:href="#linearGradient26333"/><radialGradient id="radialGradient26341" cx="143.875" cy="45.687" r="7.5" fx="143.875" fy="45.687" gradientTransform="matrix(1,0,0,0.775,0,10.279468)" gradientUnits="userSpaceOnUse" xlink:href="#linearGradient26333"/><linearGradient id="linearGradient21873"><stop id="stop21875" offset="0" style="stop-color:#fff;stop-opacity:1"/><stop id="stop21877" offset="1" style="stop-color:#ffd035;stop-opacity:0"/></linearGradient><linearGradient id="linearGradient25182"><stop id="stop25184" offset="0" style="stop-color:#fff;stop-opacity:1"/><stop id="stop25186" offset="1" style="stop-color:#000;stop-opacity:0"/></linearGradient><linearGradient id="linearGradient26333"><stop id="stop26335" offset="0" style="stop-color:#ebebeb;stop-opacity:1"/><stop id="stop26337" offset="1" style="stop-color:#ebebeb;stop-opacity:0"/></linearGradient><linearGradient id="linearGradient6284"><stop id="stop6286" offset="0" style="stop-color:#b3b3b3;stop-opacity:0"/><stop id="stop6288" offset="1" style="stop-color:#b3b3b3;stop-opacity:1"/></linearGradient><linearGradient id="linearGradient25592"><stop id="stop25594" offset="0" style="stop-color:#000;stop-opacity:0"/><stop id="stop25596" offset="1" style="stop-color:#000;stop-opacity:0"/></linearGradient><linearGradient id="linearGradient28850"><stop id="stop28852" offset="0" style="stop-color:#fff;stop-opacity:1"/><stop id="stop28854" offset="1" style="stop-color:#fff;stop-opacity:0"/></linearGradient><linearGradient id="linearGradient61418"><stop id="stop61420" offset="0" style="stop-color:#fff;stop-opacity:.43137255"/><stop id="stop61422" offset="1" style="stop-color:#fff;stop-opacity:0"/></linearGradient><filter id="filter4509-3" style="color-interpolation-filters:sRGB"><feGaussianBlur id="feGaussianBlur4511-3" stdDeviation="2.425"/></filter></defs><metadata id="metadata7"/><g id="layer6" transform="translate(-226.67683,-1265.925)" style="display:inline"><rect id="use5544" width="97" height="97" x="1074.799" y="615.85" rx="20" ry="20" transform="matrix(1.0666667,0,0,1.0666667,-523.5649,874.90273)" style="display:inline;fill:#2e3436;stroke:#2e3436;stroke-width:3.00000024;stroke-miterlimit:4;stroke-dasharray:none;stroke-opacity:1;filter:url(#filter4509-3)"/><rect id="use5542" width="97" height="97" x="1124.799" y="476.564" rx="20" ry="20" transform="matrix(1.0666667,0,0,1.0666667,-523.5649,810.90273)" style="display:inline;fill:#2e3436;stroke:#2e3436;stroke-width:3.00000024;stroke-miterlimit:4;stroke-dasharray:none;stroke-opacity:1;filter:url(#filter4509-3)"/><rect id="use5546" width="97" height="97" x="1024.799" y="755.135" rx="20" ry="20" transform="matrix(1.0666667,0,0,1.0666667,-523.5649,946.90273)" style="display:inline;fill:#2e3436;stroke:#2e3436;stroke-width:3.00000024;stroke-miterlimit:4;stroke-dasharray:none;stroke-opacity:1;filter:url(#filter4509-3)"/><text style="font-style:normal;font-variant:normal;font-weight:400;font-stretch:normal;font-size:12.80000019px;line-height:0%;font-family:sans-serif;-inkscape-font-specification:Sans;text-align:start;letter-spacing:0;word-spacing:0;writing-mode:lr-tb;text-anchor:start;display:inline;fill:#000;fill-opacity:1;stroke:none;stroke-width:1.06666672" id="text4481" x="562.522" y="1658.828" xml:space="preserve"><tspan id="tspan4483" x="562.522" y="1658.828" style="font-size:25.60000038px;line-height:1.25;font-family:sans-serif;stroke-width:1.06666672">in Linux kernel 4.7</tspan></text><use style="display:inline" id="use3379" width="1440" height="1080" x="0" y="0" transform="translate(424.9207,-212.57139)" xlink:href="#rect4366"/><use style="display:inline" id="use3381" width="1440" height="1080" x="0" y="0" transform="translate(371.58737,1.2314385e-5)" xlink:href="#rect4366"/><use style="display:inline" id="use3383" width="1440" height="1080" x="0" y="0" transform="translate(318.25404,220.57141)" xlink:href="#rect4366"/><rect id="use5548" width="97" height="97" x="726.435" y="615.85" rx="20" ry="20" transform="matrix(1.0666667,0,0,1.0666667,-523.5649,874.90273)" style="display:inline;fill:#2e3436;stroke:#2e3436;stroke-width:3.00000024;stroke-miterlimit:4;stroke-dasharray:none;stroke-opacity:1;filter:url(#filter4509-3)"/><path style="display:inline;fill:#00f;fill-opacity:1;fill-rule:nonzero;stroke:#fff;stroke-width:3.20000005;stroke-linecap:square;stroke-miterlimit:4;stroke-dasharray:none;stroke-opacity:1" id="path5150" d="m 537.1638,1369.6515 -6.1333,-6.4143 3.5333,-5.2795 -6.4334,-5.4768 2.1333,-3.0097 h -55.06663 c -8.51477,0 -13.63328,8.0314 -13.63328,20.1803 v 199.731 h -74.63333 v -11.2004 l -22.73333,21.3152 22.73333,21.3151 v -11.2496 h 74.63333 v 199.7308 c 0,12.6041 5.42582,20.1804 13.63328,20.1804 h 80.30003 v 11.2497 l 17.0667,-21.3152 -17.0667,-21.3151 v 11.2002 h -80.30003 v -199.7308 h 46.06673 l -6.1333,-6.4142 3.5332,-5.2796 -6.4332,-5.4768 2.1666,-3.0097 h -39.20003 v -199.731 z"/><path style="display:inline;fill:#00f;fill-opacity:1;fill-rule:nonzero;stroke:#babdb6;stroke-width:3.19999981;stroke-linecap:square;stroke-miterlimit:4;stroke-dasharray:none;stroke-opacity:1" id="path5147" d="m 526.6948,1570.501 -2.1666,2.0333 6.4332,3.7 -3.5332,3.5667 6.1333,4.3333 h 69.6 v 7.6 l 22.7333,-14.4 -22.7333,-14.4 v 7.5667 z"/><path style="display:inline;fill:#00f;fill-opacity:1;fill-rule:nonzero;stroke:#babdb6;stroke-width:3.19999981;stroke-linecap:square;stroke-miterlimit:4;stroke-dasharray:none;stroke-opacity:1" id="path4447" d="m 662.1614,1346.3676 v 7.5667 H 540.9286 l -2.1334,2.0333 6.4334,3.7 -3.5333,3.5667 6.1333,4.3333 h 114.3328 v 7.6 l 17.0667,-14.4 z"/><text id="use5377" x="545.804" y="1590.706" xml:space="preserve" style="font-style:normal;font-variant:normal;font-weight:400;font-stretch:normal;font-size:12.80000019px;line-height:0%;font-family:sans-serif;-inkscape-font-specification:Sans;text-align:start;letter-spacing:0;word-spacing:0;writing-mode:lr-tb;text-anchor:start;fill:#000;fill-opacity:1;stroke:none;stroke-width:1.06666672"><tspan style="font-size:42.66666794px;line-height:1.25;font-family:sans-serif;stroke-width:1.06666672" id="tspan1865" x="545.804" y="1590.706">✘</tspan></text><text id="text5407" x="259.288" y="1285.375" xml:space="preserve" style="font-style:normal;font-variant:normal;font-weight:400;font-stretch:normal;font-size:12.80000019px;line-height:0%;font-family:sans-serif;-inkscape-font-specification:Sans;text-align:start;letter-spacing:0;word-spacing:0;writing-mode:lr-tb;text-anchor:start;display:inline;fill:#000;fill-opacity:1;stroke:none;stroke-width:1.06666672"><tspan id="tspan5409" x="259.288" y="1285.375" style="font-size:25.60000038px;line-height:1.25;font-family:sans-serif;stroke-width:1.06666672"><tspan style="font-weight:700;font-family:sans-serif;-inkscape-font-specification:'Sans Bold';stroke-width:1.06666672" id="tspan5720">no</tspan> stable ABI over Linux kernel releases,</tspan><tspan id="tspan5588" x="259.288" y="1317.375" style="font-size:25.60000038px;line-height:1.25;font-family:sans-serif;stroke-width:1.06666672">binaries are not portable</tspan></text><text id="use5435" x="572.07" y="1375.927" xml:space="preserve" style="font-style:normal;font-variant:normal;font-weight:400;font-stretch:normal;font-size:12.80000019px;line-height:0%;font-family:sans-serif;-inkscape-font-specification:Sans;text-align:start;letter-spacing:0;word-spacing:0;writing-mode:lr-tb;text-anchor:start;fill:#000;fill-opacity:1;stroke:none;stroke-width:1.06666672"><tspan style="font-size:42.66666794px;line-height:1.25;font-family:sans-serif;stroke-width:1.06666672" id="tspan1676" x="572.07" y="1375.927">✘</tspan></text><text id="use5451" x="498.917" y="1811.503" xml:space="preserve" style="font-style:normal;font-variant:normal;font-weight:400;font-stretch:normal;font-size:12.80000019px;line-height:0%;font-family:sans-serif;-inkscape-font-specification:Sans;text-align:start;letter-spacing:0;word-spacing:0;writing-mode:lr-tb;text-anchor:start;display:inline;fill:#000;fill-opacity:1;stroke:none;stroke-width:1.06666672"><tspan style="font-size:42.66666794px;line-height:1.25;font-family:sans-serif;stroke-width:1.06666672" id="tspan1454" x="498.917" y="1811.503">✔</tspan></text><text style="font-style:normal;font-variant:normal;font-weight:400;font-stretch:normal;font-size:12.80000019px;line-height:0%;font-family:sans-serif;-inkscape-font-specification:Sans;text-align:start;letter-spacing:0;word-spacing:0;writing-mode:lr-tb;text-anchor:start;display:inline;fill:#000;fill-opacity:1;stroke:none;stroke-width:1.06666672" id="text4406" x="225.264" y="1663.746" xml:space="preserve"><tspan id="tspan4410" x="225.264" y="1663.746" style="font-size:25.60000038px;line-height:1.25;font-family:sans-serif;stroke-width:1.06666672">compiled for</tspan><tspan id="tspan4491" x="225.264" y="1695.746" style="font-size:25.60000038px;line-height:1.25;font-family:sans-serif;stroke-width:1.06666672">Linux kernel 4.0</tspan></text><text id="text4422" x="508.92" y="1881.293" xml:space="preserve" style="font-style:normal;font-variant:normal;font-weight:400;font-stretch:normal;font-size:12.80000019px;line-height:0%;font-family:sans-serif;-inkscape-font-specification:Sans;text-align:start;letter-spacing:0;word-spacing:0;writing-mode:lr-tb;text-anchor:start;display:inline;fill:#000;fill-opacity:1;stroke:none;stroke-width:1.06666672"><tspan id="tspan4426" x="508.92" y="1881.293" style="font-size:25.60000038px;line-height:1.25;font-family:sans-serif;stroke-width:1.06666672">in Linux kernel 4.0</tspan></text><text id="text4485" x="607.305" y="1448.133" xml:space="preserve" style="font-style:normal;font-variant:normal;font-weight:400;font-stretch:normal;font-size:12.80000019px;line-height:0%;font-family:sans-serif;-inkscape-font-specification:Sans;text-align:start;letter-spacing:0;word-spacing:0;writing-mode:lr-tb;text-anchor:start;display:inline;fill:#000;fill-opacity:1;stroke:none;stroke-width:1.06666672"><tspan id="tspan4487" x="607.305" y="1448.133" style="font-size:25.60000038px;line-height:1.25;font-family:sans-serif;stroke-width:1.06666672">in Linux kernel 4.14</tspan></text><text id="text4432" x="733.959" y="1370.539" xml:space="preserve" style="font-style:normal;font-variant:normal;font-weight:700;font-stretch:normal;font-size:12.80000019px;line-height:0%;font-family:'Nimbus Sans L';-inkscape-font-specification:'Nimbus Sans L Bold';text-align:center;letter-spacing:0;word-spacing:0;text-anchor:middle;display:inline;fill:#000;fill-opacity:1;stroke:none;stroke-width:1.06666672"><tspan id="tspan4434" x="733.959" y="1370.539" style="font-size:21.33333397px;line-height:1.25;stroke-width:1.06666672">DRM</tspan></text><rect style="display:inline;fill:#0169c9;stroke:#013397;stroke-width:3.20000029;stroke-miterlimit:4;stroke-dasharray:none;stroke-opacity:1" id="rect4366" width="103.467" height="103.467" x="257.507" y="1525.601" rx="21.333" ry="21.333"/><text id="text4382" x="309.269" y="1558.198" xml:space="preserve" style="font-style:normal;font-variant:normal;font-weight:700;font-stretch:normal;font-size:12.80000019px;line-height:0%;font-family:'Nimbus Sans L';-inkscape-font-specification:'Nimbus Sans L Bold';text-align:center;letter-spacing:0;word-spacing:0;text-anchor:middle;display:inline;fill:#000;fill-opacity:1;stroke:none;stroke-width:1.06666672"><tspan id="tspan4388" x="309.269" y="1558.198" style="font-size:21.33333397px;line-height:1.25;stroke-width:1.06666672">binary</tspan><tspan id="tspan4404" x="309.269" y="1584.865" style="font-size:21.33333397px;line-height:1.25;stroke-width:1.06666672">device</tspan><tspan id="tspan4402" x="309.269" y="1611.532" style="font-size:21.33333397px;line-height:1.25;stroke-width:1.06666672">driver</tspan></text><text style="font-style:normal;font-variant:normal;font-weight:700;font-stretch:normal;font-size:12.80000019px;line-height:0%;font-family:'Nimbus Sans L';-inkscape-font-specification:'Nimbus Sans L Bold';text-align:center;letter-spacing:0;word-spacing:0;text-anchor:middle;display:inline;fill:#000;fill-opacity:1;stroke:none;stroke-width:1.06666672" id="text4372" x="680.625" y="1585.11" xml:space="preserve"><tspan id="tspan4378" x="680.625" y="1585.11" style="font-size:21.33333397px;line-height:1.25;stroke-width:1.06666672">DRM</tspan></text><text id="text4438" x="627.292" y="1805.682" xml:space="preserve" style="font-style:normal;font-variant:normal;font-weight:700;font-stretch:normal;font-size:12.80000019px;line-height:0%;font-family:'Nimbus Sans L';-inkscape-font-specification:'Nimbus Sans L Bold';text-align:center;letter-spacing:0;word-spacing:0;text-anchor:middle;display:inline;fill:#000;fill-opacity:1;stroke:none;stroke-width:1.06666672"><tspan id="tspan4440" x="627.292" y="1805.682" style="font-size:21.33333397px;line-height:1.25;stroke-width:1.06666672">DRM</tspan></text></g></svg>