<svg xmlns="http://www.w3.org/2000/svg" xmlns:svg="http://www.w3.org/2000/svg" id="svg2" width="473.928" height="388.543" version="1.1"><defs id="defs4"><filter id="filter3772" width="1.152" height="1.985" x="-.076" y="-.492" style="color-interpolation-filters:sRGB"><feGaussianBlur id="feGaussianBlur3774" stdDeviation="3.433"/></filter><filter id="filter3950" style="color-interpolation-filters:sRGB"><feGaussianBlur id="feGaussianBlur3952" stdDeviation="7.178"/></filter><filter id="filter3974" width="1.234" height="1.075" x="-.117" y="-.038" style="color-interpolation-filters:sRGB"><feGaussianBlur id="feGaussianBlur3976" stdDeviation="3.859"/></filter><filter id="filter4002" width="1.345" height="1.176" x="-.173" y="-.088" style="color-interpolation-filters:sRGB"><feGaussianBlur id="feGaussianBlur4004" stdDeviation="8.573"/></filter></defs><g id="layer1" transform="translate(-8.6215249,-34.354711)"><g id="g4006" transform="matrix(0.75742765,0,0,0.54596249,-3.6508104,99.030792)"><g style="fill:#000;filter:url(#filter3974)" id="g3954" transform="matrix(-0.20760221,0.89785598,0.72420328,0.16745024,156.53549,-168.20248)"><rect id="rect3956" width="23.763" height="25.771" x="493.993" y="676.847" style="fill:#000;fill-opacity:1;stroke:none"/><path id="path3958" d="m 686.23013,662.35783 v 52.375 h -53.8125 v 3.34375 h 57.15625 v -55.71875 z" style="fill:#000;fill-opacity:1;stroke:none"/><rect id="rect3960" width="57.143" height="55.714" x="631.429" y="660.689" style="fill:#000;fill-opacity:1;stroke:none"/><path id="path3962" d="m 505.71429,669.18936 c 49.04761,-15.02049 98.09524,-15.6091 147.14285,-12.54145 v 67.26778 c -49.04761,1.93662 -98.09524,-1.58446 -147.14285,-14.82171 z" style="fill:#000;fill-opacity:1;stroke:none"/><rect id="rect3964" width="5.02" height="12.383" x="665.686" y="668.815" style="fill:#000;fill-opacity:1;stroke:none"/><rect style="fill:#000;fill-opacity:1;stroke:none" id="rect3966" width="5.02" height="12.383" x="665.351" y="695.255"/><ellipse id="path3968" cx="577.999" cy="690.569" rx="54.219" ry="8.367" transform="matrix(1,0,0,0.71426806,0,194.92686)" style="opacity:.25321889;fill:#000;fill-opacity:1;stroke:none;filter:url(#filter3772)"/></g><path style="fill:none;stroke:#000;stroke-width:10;stroke-linecap:butt;stroke-linejoin:miter;stroke-miterlimit:4;stroke-dasharray:none;stroke-opacity:1;filter:url(#filter3950)" id="path3946" d="M 572.57167,-39.069274 C 654.66521,136.33553 425.8012,391.77585 246.40127,389.10818 145.94907,387.61446 51.219819,242.53405 70.976589,144.03256 90.373799,47.323746 227.19844,-36.309804 322.67601,-11.553424 473.53015,27.561546 589.15011,201.99695 550.80573,396.53898"/><g style="fill:#000;filter:url(#filter4002)" id="g3978" transform="matrix(-0.17955237,-0.34852023,-0.28111356,0.14482548,855.57534,39.626055)"><rect style="fill:#000;fill-opacity:1;stroke:none" id="rect3980" width="23.763" height="25.771" x="493.993" y="676.847"/><path style="fill:#000;fill-opacity:1;stroke:none" id="path3982" d="m 686.23013,662.35783 v 52.375 h -53.8125 v 3.34375 h 57.15625 v -55.71875 z"/><rect style="fill:#000;fill-opacity:1;stroke:none" id="rect3984" width="57.143" height="55.714" x="631.429" y="660.689"/><path style="fill:#000;fill-opacity:1;stroke:none" id="path3986" d="m 505.71429,669.18936 c 49.04761,-15.02049 98.09524,-15.6091 147.14285,-12.54145 v 67.26778 c -49.04761,1.93662 -98.09524,-1.58446 -147.14285,-14.82171 z"/><rect style="fill:#000;fill-opacity:1;stroke:none" id="rect3988" width="5.02" height="12.383" x="665.686" y="668.815"/><rect id="rect3990" width="5.02" height="12.383" x="665.351" y="695.255" style="fill:#000;fill-opacity:1;stroke:none"/><ellipse style="opacity:.25321889;fill:#000;fill-opacity:1;stroke:none;filter:url(#filter3772)" id="path3992" cx="577.999" cy="690.569" rx="54.219" ry="8.367" transform="matrix(1,0,0,0.71426806,0,194.92686)"/></g><path id="path2985" d="M 572.57167,-37.024349 C 654.66521,138.38045 425.8012,393.82077 246.40127,391.1531 145.94907,389.65938 51.219815,244.57897 70.97659,146.07748 90.373797,49.368674 227.19844,-34.264879 322.67601,-9.5085019 473.53015,29.606466 589.15011,204.04188 550.80573,398.5839" style="fill:none;stroke:#000;stroke-width:10;stroke-linecap:butt;stroke-linejoin:miter;stroke-miterlimit:4;stroke-dasharray:none;stroke-opacity:1"/><g id="g3776" transform="matrix(-0.20760221,0.89785598,0.72420328,0.16745024,156.53549,-168.20248)"><rect style="fill:#000;fill-opacity:1;stroke:none" id="rect3000" width="23.763" height="25.771" x="493.993" y="676.847"/><path style="fill:#1a1a1a;fill-opacity:1;stroke:none" id="rect3809" d="m 686.23013,662.35783 v 52.375 h -53.8125 v 3.34375 h 57.15625 v -55.71875 z"/><rect style="fill:#b3b3b3;fill-opacity:1;stroke:none" id="rect3807" width="57.143" height="55.714" x="631.429" y="660.689"/><path style="fill:#000;fill-opacity:1;stroke:none" id="rect3801" d="m 505.71429,669.18936 c 49.04761,-15.02049 98.09524,-15.6091 147.14285,-12.54145 v 67.26778 c -49.04761,1.93662 -98.09524,-1.58446 -147.14285,-14.82171 z"/><rect style="fill:#333;fill-opacity:1;stroke:none" id="rect3814" width="5.02" height="12.383" x="665.686" y="668.815"/><rect id="rect3816" width="5.02" height="12.383" x="665.351" y="695.255" style="fill:#333;fill-opacity:1;stroke:none"/><ellipse style="opacity:.25321889;fill:#fff;fill-opacity:1;stroke:none;filter:url(#filter3772)" id="path3002" cx="577.999" cy="690.569" rx="54.219" ry="8.367" transform="matrix(1,0,0,0.71426806,0,194.92686)"/></g><g id="g3917" transform="matrix(-0.17955237,-0.34852023,-0.28111356,0.14482548,855.57534,39.626055)"><rect id="rect3919" width="23.763" height="25.771" x="493.993" y="676.847" style="fill:#000;fill-opacity:1;stroke:none"/><path id="path3921" d="m 686.23013,662.35783 v 52.375 h -53.8125 v 3.34375 h 57.15625 v -55.71875 z" style="fill:#1a1a1a;fill-opacity:1;stroke:none"/><rect id="rect3923" width="57.143" height="55.714" x="631.429" y="660.689" style="fill:#b3b3b3;fill-opacity:1;stroke:none"/><path id="path3925" d="m 505.71429,669.18936 c 49.04761,-15.02049 98.09524,-15.6091 147.14285,-12.54145 v 67.26778 c -49.04761,1.93662 -98.09524,-1.58446 -147.14285,-14.82171 z" style="fill:#000;fill-opacity:1;stroke:none"/><rect id="rect3927" width="5.02" height="12.383" x="665.686" y="668.815" style="fill:#333;fill-opacity:1;stroke:none"/><rect style="fill:#333;fill-opacity:1;stroke:none" id="rect3929" width="5.02" height="12.383" x="665.351" y="695.255"/><ellipse id="path3931" cx="577.999" cy="690.569" rx="54.219" ry="8.367" transform="matrix(1,0,0,0.71426806,0,194.92686)" style="opacity:.25321889;fill:#fff;fill-opacity:1;stroke:none;filter:url(#filter3772)"/></g><path style="opacity:.26970951;fill:none;stroke:#e6e6e6;stroke-width:3;stroke-linecap:butt;stroke-linejoin:miter;stroke-miterlimit:4;stroke-dasharray:none;stroke-opacity:1" id="path3948" d="M 572.57167,-37.024349 C 654.66521,138.38045 425.8012,393.82077 246.40127,391.1531 145.94907,389.65938 51.219815,244.57897 70.97659,146.07748 90.373797,49.368674 227.19844,-34.264879 322.67601,-9.5085019 473.53015,29.606466 589.15011,204.04188 550.80573,398.5839"/></g></g><metadata id="metadata54"/></svg>