<svg xmlns="http://www.w3.org/2000/svg" xmlns:svg="http://www.w3.org/2000/svg" id="svg4118" width="129.418" height="47.167" version="1.1"><g id="layer1" transform="translate(-486.71978,-505.92139)"><g id="g3911" transform="translate(414.54939,448.53762)"><rect id="rect3885" width="127.918" height="45.667" x="72.92" y="58.134" rx="13.769" ry="13.769" style="fill:#e0e0e0;fill-opacity:1;stroke:#050505;stroke-width:1.5;stroke-linecap:square;stroke-miterlimit:4;stroke-dasharray:none;stroke-opacity:1"/><g id="g3887"><g id="g3816" transform="translate(80)"><path id="rect2987" d="M 33.48153,64.260143 H 82.6615 c 7.5117,0 14.27497,5.755731 11.75102,11.765046 L 90.24686,85.94328 C 87.72292,91.952595 86.00755,97.708326 78.49585,97.708326 H 37.64719 c -7.5117,0 -8.50386,-5.755731 -11.0278,-11.765046 l -4.16566,-9.918091 c -2.523947,-6.009315 3.5161,-11.765046 11.0278,-11.765046 z" style="fill:#1a1a1a;stroke:none"/><path id="path3770" d="m 34.9181,66.879204 h 45.41124 c 11.65387,0 11.93711,4.613248 10.09042,9.515568 l -4.48691,11.911201 c -1.99518,5.296533 -4.88918,6.555276 -9.44995,6.555276 H 38.76455 c -4.1807,0 -6.16881,-1.032821 -7.88128,-5.443037 L 25.8263,76.394772 c -1.8668,-4.807664 -0.78965,-9.515568 9.0918,-9.515568 z" style="fill:#b2b2b2;fill-opacity:1;stroke:none"/><path style="fill:#3e4ac4;fill-opacity:1;stroke:#1e3332;stroke-opacity:1" id="path3768" d="M 37.33066,68.600421 H 78.8193 c 10.32999,0 10.41618,5.458195 9.21882,8.62908 L 84.17671,87.45532 c -1.7292,4.579281 -4.70478,5.851302 -8.87159,5.851302 H 40.84485 c -3.81957,0 -6.12803,-0.339108 -7.91426,-4.896441 l -4.38224,-11.18068 c -1.62846,-4.154801 -0.24559,-8.62908 8.78231,-8.62908 z"/><g id="g3803"><g id="g3796"><circle id="path3772" cx="119.271" cy="78.568" r="2.821" transform="matrix(1.1829587,0,0,1.1829587,-104.1623,-16.7618)" style="fill:#707070;fill-opacity:1;stroke:#0d1010;stroke-width:1;stroke-linecap:square;stroke-miterlimit:4;stroke-dasharray:none;stroke-opacity:1"/><circle style="fill:#707070;fill-opacity:1;stroke:#0d1010;stroke-width:1;stroke-linecap:square;stroke-miterlimit:4;stroke-dasharray:none;stroke-opacity:1" id="path3774" cx="119.271" cy="78.568" r="2.821" transform="matrix(1.1829587,0,0,1.1829587,-61.117166,-16.7618)"/><circle id="path3776" cx="119.271" cy="78.568" r="2.821" transform="matrix(1.1829587,0,0,1.1829587,-71.878453,-16.7618)" style="fill:#707070;fill-opacity:1;stroke:#0d1010;stroke-width:1;stroke-linecap:square;stroke-miterlimit:4;stroke-dasharray:none;stroke-opacity:1"/><circle style="fill:#707070;fill-opacity:1;stroke:#0d1010;stroke-width:1;stroke-linecap:square;stroke-miterlimit:4;stroke-dasharray:none;stroke-opacity:1" id="path3778" cx="119.271" cy="78.568" r="2.821" transform="matrix(1.1829587,0,0,1.1829587,-93.401017,-16.7618)"/><circle id="path3780" cx="119.271" cy="78.568" r="2.821" transform="matrix(1.1829587,0,0,1.1829587,-82.639732,-16.7618)" style="fill:#707070;fill-opacity:1;stroke:#0d1010;stroke-width:1;stroke-linecap:square;stroke-miterlimit:4;stroke-dasharray:none;stroke-opacity:1"/></g><g id="g3790"><circle id="path3782" cx="119.271" cy="78.568" r="2.821" transform="matrix(1.1829587,0,0,1.1829587,-66.497812,-6.7618)" style="fill:#707070;fill-opacity:1;stroke:#0d1010;stroke-width:1;stroke-linecap:square;stroke-miterlimit:4;stroke-dasharray:none;stroke-opacity:1"/><circle style="fill:#707070;fill-opacity:1;stroke:#0d1010;stroke-width:1;stroke-linecap:square;stroke-miterlimit:4;stroke-dasharray:none;stroke-opacity:1" id="path3784" cx="119.271" cy="78.568" r="2.821" transform="matrix(1.1829587,0,0,1.1829587,-77.259091,-6.7618)"/><circle id="path3786" cx="119.271" cy="78.568" r="2.821" transform="matrix(1.1829587,0,0,1.1829587,-98.781659,-6.7618)" style="fill:#707070;fill-opacity:1;stroke:#0d1010;stroke-width:1;stroke-linecap:square;stroke-miterlimit:4;stroke-dasharray:none;stroke-opacity:1"/><circle style="fill:#707070;fill-opacity:1;stroke:#0d1010;stroke-width:1;stroke-linecap:square;stroke-miterlimit:4;stroke-dasharray:none;stroke-opacity:1" id="path3788" cx="119.271" cy="78.568" r="2.821" transform="matrix(1.1829587,0,0,1.1829587,-88.020374,-6.7618)"/></g></g></g><g id="g3837" transform="translate(-17.795139,7.32107)"><circle style="fill:#818181;fill-opacity:1;stroke:#090909;stroke-width:.45849293;stroke-linecap:square;stroke-miterlimit:4;stroke-dasharray:none;stroke-opacity:1" id="path3835" cx="188.976" cy="83.472" r="2.604" transform="matrix(3.2715882,0,0,3.2715882,-413.82359,-199.42357)"/><circle id="path3833" cx="188.976" cy="83.472" r="2.604" transform="matrix(1.3715883,0,0,1.3715883,-54.769793,-40.826358)" style="fill:#2b2b2b;fill-opacity:1;stroke:#181818;stroke-width:.72908175;stroke-linecap:square;stroke-miterlimit:4;stroke-dasharray:none;stroke-opacity:1"/></g><g id="g3879" transform="translate(-114.8368,7.32107)"><circle id="path3881" cx="188.976" cy="83.472" r="2.604" transform="matrix(3.2715882,0,0,3.2715882,-413.82359,-199.42357)" style="fill:#818181;fill-opacity:1;stroke:#090909;stroke-width:.45849293;stroke-linecap:square;stroke-miterlimit:4;stroke-dasharray:none;stroke-opacity:1"/><circle style="fill:#2b2b2b;fill-opacity:1;stroke:#181818;stroke-width:.72908175;stroke-linecap:square;stroke-miterlimit:4;stroke-dasharray:none;stroke-opacity:1" id="path3883" cx="188.976" cy="83.472" r="2.604" transform="matrix(1.3715883,0,0,1.3715883,-54.769793,-40.826358)"/></g></g></g></g><metadata id="metadata30"/></svg>